<?xml version="1.0" encoding="UTF-8"?>
<svg width="210mm" height="297mm" version="1.1" viewBox="0 0 210 297" xmlns="http://www.w3.org/2000/svg" xmlns:cc="http://creativecommons.org/ns#" xmlns:dc="http://purl.org/dc/elements/1.1/" xmlns:rdf="http://www.w3.org/1999/02/22-rdf-syntax-ns#">
 <defs>
  <clipPath id="clipPath1296">
   <path d="m231.22 807.5h777.56v275.33h-777.56z"/>
  </clipPath>
  <clipPath id="clipPath1306">
   <path d="m231.22 1093.1h777.56v275.33h-777.56z"/>
  </clipPath>
  <clipPath id="clipPath1316">
   <path d="m231.22 1378.6h777.56v275.33h-777.56z"/>
  </clipPath>
  <clipPath id="clipPath1326">
   <path d="m338.49 864.94h76.39v114.04h-76.39z"/>
  </clipPath>
  <clipPath id="clipPath1336">
   <path d="m318.62 1161h116.12v106.98h-116.12z"/>
  </clipPath>
  <clipPath id="clipPath1350">
   <path d="m287.24 1450.1h218.64v106.98h-218.64z"/>
  </clipPath>
  <clipPath id="clipPath1440">
   <path d="m233.67 1605h266.03v50.787h-266.03z"/>
  </clipPath>
  <clipPath id="clipPath1454">
   <path d="m236.76 1321.1h279.85v50.787h-279.85z"/>
  </clipPath>
  <clipPath id="clipPath1468">
   <path d="m234.14 1029.8h436.42v50.787h-436.42z"/>
  </clipPath>
  <clipPath id="clipPath1482">
   <path d="m619.58 1580.9h125.39v66.209h-125.39z"/>
  </clipPath>
  <clipPath id="clipPath1504">
   <path d="m619.58 1516.3h125.58v66.209h-125.58z"/>
  </clipPath>
  <clipPath id="clipPath1526">
   <path d="m619.58 1451.8h157.32v66.209h-157.32z"/>
  </clipPath>
  <clipPath id="clipPath1548">
   <path d="m619.58 1295.6h125.39v66.209h-125.39z"/>
  </clipPath>
  <clipPath id="clipPath1570">
   <path d="m619.58 1231h125.58v66.209h-125.58z"/>
  </clipPath>
  <clipPath id="clipPath1592">
   <path d="m619.58 1166.5h157.32v66.209h-157.32z"/>
  </clipPath>
  <clipPath id="clipPath1614">
   <path d="m619.58 1010.3h125.39v66.209h-125.39z"/>
  </clipPath>
  <clipPath id="clipPath1636">
   <path d="m619.58 945.76h125.58v66.209h-125.58z"/>
  </clipPath>
  <clipPath id="clipPath1658">
   <path d="m619.58 881.2h157.32v66.209h-157.32z"/>
  </clipPath>
  <clipPath id="clipPath1680">
   <path d="m619.58 815.64h220.6v66.209h-220.6z"/>
  </clipPath>
  <clipPath id="clipPath1702">
   <path d="m800.26 1606.7h27.13v27.13h-27.13z"/>
  </clipPath>
  <clipPath id="clipPath1716">
   <path d="m838.04 1606.7h27.13v27.13h-27.13z"/>
  </clipPath>
  <clipPath id="clipPath1730">
   <path d="m875.81 1606.7h27.13v27.13h-27.13z"/>
  </clipPath>
  <clipPath id="clipPath1744">
   <path d="m913.59 1606.7h27.13v27.13h-27.13z"/>
  </clipPath>
  <clipPath id="clipPath1758">
   <path d="m951.36 1606.7h27.13v27.13h-27.13z"/>
  </clipPath>
  <clipPath id="clipPath1772">
   <path d="m800.26 1544.3h27.13v27.13h-27.13z"/>
  </clipPath>
  <clipPath id="clipPath1786">
   <path d="m838.04 1544.3h27.13v27.13h-27.13z"/>
  </clipPath>
  <clipPath id="clipPath1798">
   <path d="m875.81 1544.3h27.13v27.13h-27.13z"/>
  </clipPath>
  <clipPath id="clipPath1810">
   <path d="m913.59 1544.3h27.13v27.13h-27.13z"/>
  </clipPath>
  <clipPath id="clipPath1822">
   <path d="m951.36 1544.3h27.13v27.13h-27.13z"/>
  </clipPath>
  <clipPath id="clipPath1834">
   <path d="m800.26 1479.8h27.13v27.13h-27.13z"/>
  </clipPath>
  <clipPath id="clipPath1848">
   <path d="m838.04 1479.8h27.13v27.13h-27.13z"/>
  </clipPath>
  <clipPath id="clipPath1860">
   <path d="m875.81 1479.8h27.13v27.13h-27.13z"/>
  </clipPath>
  <clipPath id="clipPath1872">
   <path d="m913.59 1479.8h27.13v27.13h-27.13z"/>
  </clipPath>
  <clipPath id="clipPath1884">
   <path d="m951.36 1479.8h27.13v27.13h-27.13z"/>
  </clipPath>
  <clipPath id="clipPath1896">
   <path d="m800.26 1414.1h27.13v27.13h-27.13z"/>
  </clipPath>
  <clipPath id="clipPath1910">
   <path d="m838.04 1414.1h27.13v27.13h-27.13z"/>
  </clipPath>
  <clipPath id="clipPath1922">
   <path d="m875.81 1414.1h27.13v27.13h-27.13z"/>
  </clipPath>
  <clipPath id="clipPath1934">
   <path d="m913.59 1414.1h27.13v27.13h-27.13z"/>
  </clipPath>
  <clipPath id="clipPath1946">
   <path d="m951.36 1414.1h27.13v27.13h-27.13z"/>
  </clipPath>
  <clipPath id="clipPath1958">
   <path d="m798.26 1320.7h27.13v27.13h-27.13z"/>
  </clipPath>
  <clipPath id="clipPath1972">
   <path d="m836.04 1320.7h27.13v27.13h-27.13z"/>
  </clipPath>
  <clipPath id="clipPath1986">
   <path d="m873.81 1320.7h27.13v27.13h-27.13z"/>
  </clipPath>
  <clipPath id="clipPath2000">
   <path d="m911.59 1320.7h27.13v27.13h-27.13z"/>
  </clipPath>
  <clipPath id="clipPath2012">
   <path d="m949.36 1320.7h27.13v27.13h-27.13z"/>
  </clipPath>
  <clipPath id="clipPath2024">
   <path d="m798.26 1258.3h27.13v27.13h-27.13z"/>
  </clipPath>
  <clipPath id="clipPath2038">
   <path d="m836.04 1258.3h27.13v27.13h-27.13z"/>
  </clipPath>
  <clipPath id="clipPath2052">
   <path d="m873.81 1258.3h27.13v27.13h-27.13z"/>
  </clipPath>
  <clipPath id="clipPath2066">
   <path d="m911.59 1258.3h27.13v27.13h-27.13z"/>
  </clipPath>
  <clipPath id="clipPath2080">
   <path d="m949.36 1258.3h27.13v27.13h-27.13z"/>
  </clipPath>
  <clipPath id="clipPath2092">
   <path d="m798.26 1193.8h27.13v27.13h-27.13z"/>
  </clipPath>
  <clipPath id="clipPath2106">
   <path d="m836.04 1193.8h27.13v27.13h-27.13z"/>
  </clipPath>
  <clipPath id="clipPath2118">
   <path d="m873.81 1193.8h27.13v27.13h-27.13z"/>
  </clipPath>
  <clipPath id="clipPath2130">
   <path d="m911.59 1193.8h27.13v27.13h-27.13z"/>
  </clipPath>
  <clipPath id="clipPath2142">
   <path d="m949.36 1193.8h27.13v27.13h-27.13z"/>
  </clipPath>
  <clipPath id="clipPath2154">
   <path d="m798.26 1128.1h27.13v27.13h-27.13z"/>
  </clipPath>
  <clipPath id="clipPath2168">
   <path d="m836.04 1128.1h27.13v27.13h-27.13z"/>
  </clipPath>
  <clipPath id="clipPath2182">
   <path d="m873.81 1128.1h27.13v27.13h-27.13z"/>
  </clipPath>
  <clipPath id="clipPath2196">
   <path d="m911.59 1128.1h27.13v27.13h-27.13z"/>
  </clipPath>
  <clipPath id="clipPath2208">
   <path d="m949.36 1128.1h27.13v27.13h-27.13z"/>
  </clipPath>
  <clipPath id="clipPath2220">
   <path d="m800.26 1036.8h27.13v27.13h-27.13z"/>
  </clipPath>
  <clipPath id="clipPath2234">
   <path d="m838.04 1036.8h27.13v27.13h-27.13z"/>
  </clipPath>
  <clipPath id="clipPath2246">
   <path d="m875.81 1036.8h27.13v27.13h-27.13z"/>
  </clipPath>
  <clipPath id="clipPath2258">
   <path d="m913.59 1036.8h27.13v27.13h-27.13z"/>
  </clipPath>
  <clipPath id="clipPath2270">
   <path d="m951.36 1036.8h27.13v27.13h-27.13z"/>
  </clipPath>
  <clipPath id="clipPath2282">
   <path d="m800.26 974.43h27.13v27.13h-27.13z"/>
  </clipPath>
  <clipPath id="clipPath2296">
   <path d="m838.04 974.43h27.13v27.13h-27.13z"/>
  </clipPath>
  <clipPath id="clipPath2310">
   <path d="m875.81 974.43h27.13v27.13h-27.13z"/>
  </clipPath>
  <clipPath id="clipPath2324">
   <path d="m913.59 974.43h27.13v27.13h-27.13z"/>
  </clipPath>
  <clipPath id="clipPath2338">
   <path d="m951.36 974.43h27.13v27.13h-27.13z"/>
  </clipPath>
  <clipPath id="clipPath2352">
   <path d="m800.26 909.93h27.13v27.13h-27.13z"/>
  </clipPath>
  <clipPath id="clipPath2366">
   <path d="m838.04 909.93h27.13v27.13h-27.13z"/>
  </clipPath>
  <clipPath id="clipPath2380">
   <path d="m875.81 909.93h27.13v27.13h-27.13z"/>
  </clipPath>
  <clipPath id="clipPath2394">
   <path d="m913.59 909.93h27.13v27.13h-27.13z"/>
  </clipPath>
  <clipPath id="clipPath2406">
   <path d="m951.36 909.93h27.13v27.13h-27.13z"/>
  </clipPath>
  <clipPath id="clipPath2418">
   <path d="m800.26 844.22h27.13v27.13h-27.13z"/>
  </clipPath>
  <clipPath id="clipPath2432">
   <path d="m838.04 844.22h27.13v27.13h-27.13z"/>
  </clipPath>
  <clipPath id="clipPath2446">
   <path d="m875.81 844.22h27.13v27.13h-27.13z"/>
  </clipPath>
  <clipPath id="clipPath2460">
   <path d="m913.59 844.22h27.13v27.13h-27.13z"/>
  </clipPath>
  <clipPath id="clipPath2474">
   <path d="m951.36 844.22h27.13v27.13h-27.13z"/>
  </clipPath>
  <clipPath id="clipPath2488">
   <path d="m619.58 1098h220.6v66.209h-220.6z"/>
  </clipPath>
  <clipPath id="clipPath2510">
   <path d="m619.58 1381.9h220.6v66.209h-220.6z"/>
  </clipPath>
 </defs>
 <metadata>
  <rdf:RDF>
   <cc:Work rdf:about="">
    <dc:format>image/svg+xml</dc:format>
    <dc:type rdf:resource="http://purl.org/dc/dcmitype/StillImage"/>
    <dc:title/>
   </cc:Work>
  </rdf:RDF>
 </metadata>
 <g transform="matrix(.35278 0 0 -.35278 -130.28 483.31)">
  <g clip-path="url(#clipPath1296)">
   <path d="m245.17 1081.8h749.66c3.8004 0 6.0806 0 7.6006-0.635 2.192-0.797 3.918-2.524 4.716-4.715 0.634-1.52 0.634-3.801 0.634-7.601v-247.42c0-3.8005 0-6.0808-0.634-7.601-0.798-2.1914-2.524-3.9178-4.716-4.7154-1.52-0.6346-3.8002-0.6346-7.6006-0.6346h-749.66c-3.8004 0-6.0807 0-7.6009 0.6346-2.1915 0.7976-3.9178 2.524-4.7154 4.7154-0.6347 1.5202-0.6347 3.8005-0.6347 7.601v247.42c0 3.8 0 6.081 0.6347 7.601 0.7976 2.191 2.5239 3.918 4.7154 4.715 1.5202 0.635 3.8005 0.635 7.6009 0.635z" fill="#009193" fill-opacity=".4261"/>
  </g>
 </g>
 <g transform="matrix(.35278 0 0 -.35278 -130.28 483.31)">
  <g clip-path="url(#clipPath1306)">
   <path d="m245.17 1367.4h749.66c3.8004 0 6.0806 0 7.6006-0.635 2.192-0.797 3.918-2.524 4.716-4.715 0.634-1.52 0.634-3.801 0.634-7.601v-247.42c0-3.8 0-6.081-0.634-7.601-0.798-2.191-2.524-3.918-4.716-4.715-1.52-0.635-3.8002-0.635-7.6006-0.635h-749.66c-3.8004 0-6.0807 0-7.6009 0.635-2.1915 0.797-3.9178 2.524-4.7154 4.715-0.6347 1.52-0.6347 3.801-0.6347 7.601v247.42c0 3.8 0 6.081 0.6347 7.601 0.7976 2.191 2.5239 3.918 4.7154 4.715 1.5202 0.635 3.8005 0.635 7.6009 0.635z" fill="#4f8f00" fill-opacity=".4261"/>
  </g>
 </g>
 <g transform="matrix(.35278 0 0 -.35278 -130.28 483.31)">
  <g clip-path="url(#clipPath1316)">
   <path d="m245.17 1652.9h749.66c3.8004 0 6.0806 0 7.6006-0.635 2.192-0.798 3.918-2.524 4.716-4.715 0.634-1.521 0.634-3.801 0.634-7.601v-247.42c0-3.801 0-6.081-0.634-7.601-0.798-2.192-2.524-3.918-4.716-4.715-1.52-0.635-3.8002-0.635-7.6006-0.635h-749.66c-3.8004 0-6.0807 0-7.6009 0.635-2.1915 0.797-3.9178 2.523-4.7154 4.715-0.6347 1.52-0.6347 3.8-0.6347 7.601v247.42c0 3.8 0 6.08 0.6347 7.601 0.7976 2.191 2.5239 3.917 4.7154 4.715 1.5202 0.635 3.8005 0.635 7.6009 0.635z" fill="#929000" fill-opacity=".4261"/>
  </g>
 </g>
 <g transform="matrix(.35278 0 0 -.35278 -130.28 483.31)">
  <g clip-path="url(#clipPath1326)">
   <path d="m413.28 876.89c-8e-3 0.0111-0.0145 0.0187-0.0221 0.0255l-21.907 26.122v26.05h2.5238c0.8289 0 1.5034 0.6747 1.5034 1.5037v9.5546c0 0.8291-0.6745 1.5036-1.5034 1.5036h-15.727c-0.0432 1.5912-0.1162 3.0938-0.2172 4.5084 0.0169 0.0204 0.0356 0.0399 0.0517 0.0619 0.6026 0.8257 1.2668 1.6166 1.972 2.3599 1.0014-0.5354 2.6263-1.183 4.6519-1.183 2.6626 0 6.0077 1.1227 9.5037 5.0914 3.8582 4.3904 6.0373 4.9113 6.1765 4.9402 0.6093 0.0739 1.115 0.5133 1.2727 1.1075 0.1614 0.616-0.0806 1.2686-0.6091 1.6283-0.4405 0.3004-10.879 7.2296-18.629 0.3632-1.8082-1.5953-3.0447-3.9688-3.4807-6.6756l-0.4108-2.5431c-0.313-0.3081-0.6204-0.6246-0.9197-0.9478-0.2055 1.5504-0.4575 2.9589-0.7553 4.2223l1.1761 3.8975c1.042 3.4663 0.9495 6.9878-0.2605 9.9143-5.2712 12.705-21.82 10.486-22.529 10.38-0.6126-0.0884-1.0897-0.5541-1.2287-1.1591-0.1436-0.6017 0.1247-1.2432 0.6347-1.592 0.0255-0.0185 2.5931-1.8558 4.8562-10.087 3.1285-11.389 10.395-12.896 14.026-12.896 0.2079 0 0.4032 5e-3 0.5857 0.0135 0.5448-2.6339 0.9825-6.3023 1.1259-11.406h-15.634c-0.8291 0-1.5036-0.6744-1.5036-1.5034v-9.5548c0-0.8289 0.6745-1.5036 1.5036-1.5036h2.4906v-26.023l-21.912-26.324c-1.753-2.2079-2.083-5.1542-0.8544-7.6914 1.2252-2.5312 3.7303-4.1052 6.5397-4.1052h0.0187l61.836 0.1323c2.8172 8e-3 5.3221 1.592 6.5399 4.1308 1.2143 2.5422 0.8765 5.4876-0.8842 7.6844zm-28.972 81.387c4.0604 3.5869 9.391 2.0943 12.468 0.7264-1.2873-0.8733-2.9419-2.2707-4.9259-4.5262-4.0993-4.6669-7.6097-4.4319-9.5426-3.7217 1.3449 1.0835 2.7551 1.9702 4.1323 2.5745 1.372 0.5974 2.7104 1.0564 3.9864 1.3645 0.807 0.1909 1.306 1.0046 1.1118 1.8082-0.1945 0.807-1.0015 1.3238-1.8085 1.1115-1.4482-0.3445-2.9638-0.8619-4.4929-1.5332-1.0811-0.4727-2.1758-1.0905-3.2482-1.8253 0.4184 1.6437 1.2228 3.0522 2.3198 4.0213zm-22.007 8.4576c-1.2619 4.588-2.6628 7.4604-3.8143 9.2246 4.5737 0 13.238-1.0675 16.407-8.7113 0.9434-2.2818 1.0038-5.0786 0.1679-7.8763-0.2791 0.522-0.5752 0.9877-0.891 1.3909-0.4106 0.5244-0.7516 1.0818-1.0818 1.6173-0.3997 0.6491-0.7849 1.2686-1.2254 1.8047-1.5332 1.8814-3.1583 3.5691-4.8307 5.0065-0.6237 0.543-1.5732 0.4692-2.1163-0.1577-0.543-0.6272-0.4727-1.5775 0.1577-2.1163 1.5369-1.3281 3.0371-2.8835 4.4602-4.6289 0.3597-0.4438 0.6712-0.9538 0.9977-1.4858 0.3854-0.6272 0.7883-1.2763 1.2729-1.8923 0.4234-0.5413 0.9343-1.4331 1.4281-2.8961-2.784 0.0289-8.3496 1.3179-10.932 10.721zm2.7025-50.929c0.1986 0.7221 3.5843 2.5151 10.216 2.7475 0.0441-2.6415 0.1162-4.4625 0.2172-5.4926-6.7749 0.2011-10.233 2.0228-10.433 2.7256zm13.454-2.724c-0.0824 0.6262-0.1749 2.1095-0.2309 5.468 6.5474-0.2476 9.9016-2.0169 10.116-2.739-0.2122-0.7136-3.4902-2.4497-9.8848-2.7297-8e-4 0-8e-4 0-8e-4 7e-4zm9.8856 6.4125c-2.5296 1.2541-6.3329 1.9236-10.151 2.0637-0.0117 1.4969-0.0178 3.238-0.0161 5.2713l9e-4 2.2587h10.166zm4.0272 19.148v-6.5473h-14.193l2e-3 3.5163c0.0152 1.0403 0.0187 2.0476 0.0143 3.0295l14.177 2e-3zm-31.362 0h14.18c5e-3 -0.9519 0-1.9457-0.0143-2.9852l-3e-3 -3.5612h-14.162l-9e-4 6.5464zm14.16-9.5546-2e-3 -2.2596c-8e-4 -1.9559 5e-3 -3.7107 0.017-5.2687-3.8287-0.1375-7.6445-0.807-10.181-2.0645v9.5928h10.166zm36.286-58.582c-0.7221-1.5113-2.1569-2.4167-3.8363-2.4217l-61.836-0.1323h-0.0111c-1.6724 0-3.1065 0.8985-3.8362 2.4065-0.7297 1.5112-0.5431 3.1989 0.4844 4.4853l22.238 26.717c0.224 0.2715 0.3487 0.6093 0.3487 0.9614v9.6039c2.6423-1.3101 6.6754-1.9822 10.663-2.078 0.0228-2.4219-0.3717-4.8147-1.1965-7.2535-0.7475-2.2114-0.5939-4.1045-0.0984-5.798l-3.8897-3.6523-4.8698 0.5151c-0.8215 0.1214-1.5623-0.5099-1.6505-1.3347s0.5101-1.5664 1.3349-1.6505l2.2952-0.2426-4.0415-3.7957c-0.6052-0.5684-0.6348-1.5179-0.0697-2.1238 0.2969-0.3156 0.6966-0.477 1.0963-0.477 0.3708 0 0.7375 0.136 1.0268 0.4075l2.4386 2.29 0.2351-1.6774c0.1062-0.7519 0.7486-1.2949 1.4858-1.2949 0.0695 0 0.1434 8e-3 0.2131 0.0143 0.8214 0.1171 1.3933 0.8765 1.2804 1.6981l-0.5303 3.7793 4.8468 4.5516c0.0587-0.1247 0.118-0.2485 0.1766-0.3717l0.3411-0.7262c1.1921-2.5678 1.3898-5.2306 0.5652-7.4937-0.2639-0.7042-0.3886-0.8952-0.4108-0.9239-0.6117-0.8528-1.0292-1.8084-1.2584-2.8011l-2.7688-2.466c-0.6204-0.5539-0.6747-1.5002-0.1247-2.1195 0.297-0.3334 0.7078-0.5057 1.1227-0.5057 0.3554 0 0.7118 0.1279 0.9977 0.3808l0.8665 0.7714c0.1629-0.5761 0.3886-1.1379 0.6856-1.6733l0.4251-0.7629c0.275-0.4912 0.7883-0.7703 1.3136-0.7703 0.2494 0 0.499 0.0619 0.7331 0.1907 0.7221 0.4032 0.9826 1.3205 0.5796 2.0435l-0.4251 0.7627c-0.5296 0.9538-0.7086 2.0434-0.5542 3.0861 5e-3 0.028 0.0102 0.0561 0.0137 0.0841 0.1186 0.7188 0.3954 1.4137 0.8307 2.023 0.1282 0.1756 0.252 0.3869 0.3802 0.6491l1.322-1.8125c0.2935-0.403 0.7518-0.6202 1.2143-0.6202 0.3078 0 0.6202 0.0949 0.8841 0.2893 0.6713 0.4879 0.8179 1.4307 0.33 2.0976l-2.7177 3.7259c0.2443 2.3072-0.1834 4.7536-1.2763 7.1083l-0.3556 0.7519c-0.9191 1.9346-1.7319 3.6496-1.4289 5.7209l1.9653-2.2546c0.2969-0.3411 0.7153-0.5177 1.1335-0.5177 0.3521 0 0.701 0.1247 0.9868 0.3708 0.6272 0.5466 0.69 1.4969 0.1469 2.1197l-3.2812 3.7659c0.4818 1.9857 0.7109 3.9601 0.6905 5.9542 3.6549 0.1766 7.2476 0.8427 9.6702 2.0442v-9.6335c0-0.3523 0.1246-0.6934 0.3521-0.9649l22.248-26.53c1.0361-1.3042 1.2271-2.9842 0.5048-4.4914z"/>
  </g>
 </g>
 <g transform="matrix(.35278 0 0 -.35278 -130.28 483.31)">
  <g clip-path="url(#clipPath1336)">
   <path d="m351.69 1201.3c-2.1882-1.572-3.8354-4.069-4.6317-7.033l-0.81-3.001c-0.4197-0.335-0.8422-0.653-1.2466-1.011-0.0986 1.782-0.3264 3.531-0.6816 5.253l1.7805 4.27c1.5712 3.765 1.873 7.715 0.8498 11.124-4.4387 14.862-23.89 14.241-24.123 14.246-0.606-0.025-1.1192-0.434-1.313-1.008-0.1971-0.578 0-1.227 0.4699-1.614 0.0255-0.026 2.7918-2.419 4.4209-12.168 2.3916-14.316 11.609-16.025 15.175-16.142 0.6816-3.709 0.7623-7.576 0.1505-11.501-2.6584-0.076-5.0387-1.746-6.4444-4.471-1.0369 0.617-2.1639 0.94-3.3333 0.94-3.3839 0-6.3619-2.716-7.4743-6.631-0.8218 0.115-1.5715-0.118-2.3032-0.392-2.5513-0.925-3.9433-3.394-3.4588-6.135 0.5133-2.917 2.881-4.955 5.762-4.955h34.868c2.8812 0 5.2496 2.038 5.7622 4.955 0.4843 2.742-0.9077 5.209-3.4521 6.133-0.7427 0.276-1.5144 0.499-2.3107 0.394-1.1126 3.915-4.0904 6.631-7.4746 6.631-1.1694 0-2.2964-0.323-3.3331-0.94-0.9383 1.818-2.3329 3.113-3.9298 3.839 0.2219 1.379 0.3722 2.756 0.4453 4.123 0.7565 0.815 1.563 1.586 2.4128 2.304 1.1796-0.824 3.3509-1.992 6.2506-1.992 2.802 0 6.2601 1.095 10.112 4.662 5.02 4.647 7.6036 4.941 7.743 4.952 0.6025 0.011 1.1448 0.384 1.3563 0.954 0.2228 0.581 0.0503 1.242-0.4308 1.644-0.459 0.382-11.335 9.352-20.808 2.571zm-22.387 9.538c-0.9509 5.705-2.3031 9.186-3.4377 11.259 5.1169-0.452 15.437-2.551 18.271-12.038 0.8253-2.759 0.5603-6.007-0.7503-9.146l-0.3501-0.841c-0.2754 0.774-0.4845 1.574-0.8158 2.327-0.7319 1.653-1.5145 3.114-2.3219 4.341-1.5103 2.304-3.1505 4.396-4.8688 6.212-0.56 0.596-1.4855 0.614-2.0771 0.061-0.5924-0.56-0.617-1.489-0.0611-2.077 1.6036-1.694 3.1324-3.649 4.5501-5.813 0.7214-1.091 1.4244-2.407 2.0882-3.911 0.5769-1.306 1.0264-2.666 1.4182-4.044-3.1333 0.262-9.7283 2.208-11.645 13.67zm17.202-35.387c0.147-0.499 0.5523-0.883 1.0588-1.004 0.5065-0.129 1.0402 0.032 1.4031 0.405 0.6137 0.635 1.6182 1.389 2.9066 1.389 2.3175 0 4.37-2.332 4.8765-5.547 0.0646-0.409 0.2974-0.768 0.6424-0.998 0.3486-0.223 0.7717-0.294 1.1694-0.197 0.7861 0.205 1.4388 0.14 2.0847-0.1 1.8086-0.657 1.6572-2.358 1.568-2.863-0.2193-1.256-1.1914-2.523-2.8666-2.523l-34.871-1e-3c-1.6759 0-2.6482 1.267-2.8666 2.523-0.0901 0.506-0.2404 2.206 1.5756 2.866 0.3842 0.14 0.793 0.212 1.2094 0.212 0.2729 0 0.5559-0.036 0.8685-0.115 0.4021-0.097 0.8253-0.025 1.1694 0.197 0.3442 0.23 0.5779 0.588 0.6425 0.998 0.5067 3.215 2.5581 5.547 4.8765 5.547 1.2884 0 2.2929-0.754 2.9066-1.389 0.3585-0.373 0.8974-0.534 1.4031-0.405 0.5064 0.122 0.9111 0.506 1.0588 1.005 0.782 2.601 2.6262 4.348 4.5928 4.348 1.9657 1e-3 3.8089-1.746 4.5908-4.348zm15.329 17.884c-5.552-5.148-9.8175-4.067-11.891-2.943 1.7709 1.185 3.6102 2.121 5.3718 2.684 1.6326 0.525 3.226 0.894 4.7329 1.095 0.8039 0.108 1.3673 0.847 1.2594 1.654-0.1111 0.804-0.8609 1.353-1.6537 1.259-1.6758-0.226-3.4377-0.631-5.2352-1.209-1.4507-0.464-2.9345-1.2-4.4065-2.044 0.6486 2.159 1.8323 3.961 3.3944 5.08 5.3175 3.81 11.579 1.137 14.88-0.843-1.5832-0.797-3.7325-2.214-6.452-4.733z"/>
   <path d="m431.19 1174.2c-0.7462 0.273-1.5103 0.477-2.2999 0.391-1.1124 3.914-4.0901 6.631-7.4743 6.631-1.1694 0-2.2964-0.323-3.334-0.94-1.4056 2.724-3.7853 4.393-6.4444 4.472-0.612 3.925-0.5313 7.793 0.1503 11.501 3.567 0.116 12.783 1.826 15.175 16.141 1.608 9.609 4.3164 12.074 4.4208 12.164 0.4811 0.373 0.6817 1.008 0.5024 1.589-0.1828 0.596-0.7249 1.012-1.3487 1.037-0.1795-0.01-19.681 0.606-24.119-14.241-1.0223-3.412-0.7214-7.362 0.85-11.127l1.7803-4.271c-0.3561-1.721-0.5828-3.47-0.6816-5.253-0.4036 0.358-0.8259 0.676-1.2458 1.012l-0.8073 2.997c-0.7998 2.968-2.4476 5.465-4.6361 7.037-9.4724 6.792-20.349-2.189-20.808-2.573-0.4632-0.387-0.6137-1.019-0.4234-1.593 0.1904-0.57 0.7395-0.969 1.342-1.001 0.0256 0 2.6125-0.197 7.7506-4.959 3.85-3.563 7.3088-4.657 10.112-4.657 2.8997 0 5.071 1.167 6.2506 1.992 0.85-0.719 1.6556-1.489 2.4128-2.304 0.0731-1.368 0.2236-2.745 0.4453-4.125-1.5969-0.728-2.9897-2.022-3.9272-3.838-1.0402 0.617-2.1672 0.94-3.3366 0.94-3.3839 0-6.3619-2.717-7.4743-6.631-0.7284 0.086-1.5467-0.118-2.3032-0.391-2.5513-0.926-3.9433-3.394-3.459-6.136 0.5135-2.917 2.8812-4.955 5.7622-4.955h34.868c2.8812 0 5.2496 2.038 5.7622 4.955 0.4852 2.742-0.9068 5.21-3.4623 6.136zm-21.209 28.753c-1.3095 3.14-1.5756 6.387-0.7504 9.15 2.8309 9.454 13.151 11.569 18.271 12.027-1.1338-2.07-2.4868-5.555-3.4378-11.252-1.9165-11.464-8.5112-13.407-11.644-13.672 0.3918 1.378 0.8413 2.736 1.4176 4.041 0.6603 1.497 1.3633 2.817 2.0923 3.918 1.4133 2.16 2.9423 4.116 4.546 5.81 0.5557 0.588 0.5311 1.517-0.0614 2.077-0.588 0.552-1.5177 0.531-2.077-0.061-1.7183-1.816-3.3585-3.908-4.8654-6.212-0.8141-1.238-1.5969-2.698-2.3251-4.345-0.3315-0.752-0.5397-1.551-0.815-2.325zm-18.447-7.582c-2.7196 2.522-4.8689 3.94-6.4512 4.736 3.305 1.984 9.5599 4.657 14.88 0.843 1.5629-1.118 2.7461-2.92 3.3979-5.08-1.4729 0.844-2.9576 1.581-4.4092 2.045-1.7975 0.578-3.5599 0.984-5.235 1.21-0.8041 0.096-1.5468-0.456-1.6539-1.26-0.1079-0.807 0.4556-1.547 1.2595-1.654 1.5068-0.2 3.1003-0.57 4.7337-1.094 1.761-0.564 3.5992-1.499 5.3695-2.685-2.0771-1.118-6.3359-2.196-11.89 2.94zm40.224-26.795c-0.2193-1.256-1.1914-2.523-2.8666-2.523h-34.871c-1.6759 0-2.6481 1.267-2.8666 2.523-0.0901 0.506-0.2404 2.206 1.5647 2.863 0.4019 0.143 0.8107 0.215 1.2203 0.215 0.2729 0 0.5559-0.036 0.8686-0.115 0.3985-0.1 0.8252-0.029 1.1694 0.197 0.3441 0.23 0.578 0.588 0.6424 0.998 0.5065 3.215 2.5581 5.547 4.8765 5.547 1.2884 0 2.2931-0.754 2.9066-1.389 0.362-0.373 0.8898-0.531 1.4031-0.405 0.5065 0.122 0.9076 0.506 1.0588 1.004 0.7863 2.602 2.6304 4.349 4.5928 4.349 1.9665 0 3.8106-1.747 4.5917-4.349 0.147-0.498 0.5524-0.882 1.0588-1.004 0.5091-0.126 1.0446 0.032 1.4031 0.405 0.6137 0.635 1.6182 1.389 2.9066 1.389 2.3175 0 4.37-2.332 4.8765-5.547 0.0646-0.409 0.2974-0.768 0.6425-0.998 0.3441-0.226 0.7682-0.297 1.1694-0.197 0.7819 0.197 1.4278 0.136 2.0846-0.1 1.806-0.656 1.6555-2.358 1.5663-2.863h2e-3z"/>
   <path d="m359.77 1210.3h31.247c2.6549 0 4.8407 1.881 5.3107 4.568 0.4486 2.533-0.8364 4.812-3.2006 5.673-0.6536 0.233-1.3241 0.352-1.999 0.358-1.0367 3.513-3.7384 5.938-6.8064 5.938-1.0224 0-2.0134-0.269-2.9319-0.782-0.8337 1.55-2.0397 2.661-3.4166 3.317 0.1871 1.183 0.3178 2.364 0.3833 3.537 0.6375 0.681 1.3089 1.335 2.0192 1.942 1.0981-0.747 3.045-1.749 5.5999-1.749 2.54 0 5.6762 0.995 9.1605 4.217 4.4208 4.09 6.7029 4.384 6.843 4.395 0.5991 0.011 1.1372 0.388 1.3486 0.951 0.2228 0.585 0.0503 1.245-0.4273 1.647-0.4164 0.348-10.248 8.468-18.835 2.314-1.9911-1.428-3.4842-3.696-4.2092-6.383l-0.7114-2.641c-0.2778-0.222-0.5728-0.412-0.8431-0.645-0.0968 1.471-0.3008 2.915-0.593 4.341l1.5773 3.782c1.4209 3.409 1.6937 6.983 0.7682 10.069-4.019 13.434-21.063 12.924-21.765 12.874-0.6059-0.026-1.1193-0.431-1.3129-1.005-0.1974-0.574-3e-3 -1.227 0.4588-1.614 0.0255-0.022 2.4654-2.164 3.9111-10.815 2.1321-12.758 10.291-14.439 13.62-14.583 0.5805-3.235 0.6451-6.604 0.1249-10.024-2.3362-0.122-4.4252-1.568-5.6932-3.926-0.9185 0.513-1.9086 0.782-2.9327 0.782-3.0681 0-5.7698-2.425-6.8056-5.938-0.6749-0.01-1.3454-0.126-2.0057-0.362-2.3575-0.857-3.6416-3.136-3.1947-5.669 0.4699-2.689 2.6558-4.569 5.3107-4.569zm26.01 33.938c4.5679 3.28 9.9459 1.113 12.932-0.624-1.41-0.739-3.2652-1.999-5.5727-4.133-4.7685-4.419-8.3692-3.712-10.25-2.754 1.5103 0.987 3.0672 1.782 4.5638 2.262 1.4353 0.463 2.8529 0.793 4.2092 0.977 0.8041 0.111 1.3676 0.85 1.2595 1.654-0.1112 0.81-0.9186 1.342-1.6537 1.259-1.5288-0.208-3.1181-0.578-4.715-1.091-1.1932-0.382-2.4119-0.97-3.6255-1.64 0.5948 1.728 1.5773 3.176 2.8538 4.09zm-21.536 10.836c-0.8185 4.894-1.9666 7.98-2.9634 9.882 4.6393-0.463 13.502-2.426 15.96-10.65 0.7284-2.436 0.4912-5.31-0.6671-8.091l-0.1614-0.388c-0.2117 0.57-0.3579 1.163-0.6035 1.719-0.6536 1.482-1.3598 2.802-2.0915 3.914-1.3674 2.081-2.842 3.961-4.3843 5.59-0.5524 0.589-1.489 0.611-2.0771 0.054-0.588-0.556-0.6137-1.489-0.0535-2.077 1.4209-1.5 2.7874-3.244 4.058-5.185 0.6459-0.976 1.2738-2.149 1.8586-3.481 0.4828-1.094 0.849-2.234 1.1855-3.385-2.8496 0.315-8.4083 2.22-10.06 12.098zm-5.5946-37.304c0.3485 0.126 0.6994 0.187 1.048 0.187 0.2328 0 0.4699-0.032 0.7249-0.097 0.3942-0.1 0.8293-0.035 1.177 0.191 0.3474 0.226 0.5846 0.592 0.6492 1.001 0.441 2.806 2.2174 4.844 4.2162 4.844 1.1015 0 1.9665-0.649 2.4976-1.198 0.3622-0.373 0.8974-0.535 1.4033-0.406 0.5064 0.123 0.9076 0.507 1.0588 1.005 0.6817 2.267 2.2751 3.789 3.9688 3.789s3.2865-1.521 3.9688-3.789c0.1505-0.499 0.5524-0.883 1.0589-1.005 0.5134-0.129 1.0404 0.033 1.4033 0.406 0.531 0.549 1.3954 1.198 2.4976 1.198 1.9989 0 3.7751-2.038 4.2161-4.844 0.0646-0.409 0.3009-0.775 0.6492-1.001 0.3486-0.23 0.7863-0.298 1.1773-0.191 0.6348 0.162 1.1948 0.115 1.765-0.085 1.5069-0.546 1.3777-1.974 1.3063-2.397-0.1904-1.063-1.008-2.135-2.4186-2.135h-31.247c-1.4098 0-2.2282 1.073-2.4186 2.135-0.0714 0.423-0.2006 1.852 1.2986 2.393h-8e-4z"/>
  </g>
 </g>
 <g transform="matrix(.35278 0 0 -.35278 -130.28 483.31)">
  <g clip-path="url(#clipPath1350)">
   <path d="m448.74 1472.2c-0.2733 0-0.58 0.059-1.3659 0.237-6.3688 1.442-8.4466 1.6-13.906 1.6h-1.86l-2.2787-0.01c-13.904 0-59.755 0.465-71.7 0.89-2.6493 0.091-4.707 0.302-6.5232 0.488-1.8754 0.191-3.4922 0.357-5.3505 0.357-2.1396 0-4.4153-0.228-7.1632-0.721-4.8194-0.826-8.4506-0.995-12.422-0.995-1.2302 0-2.5154 0.017-3.9009 0.039-0.565 0.01-1.069 0.355-1.2818 0.878-0.2127 0.523-0.0922 1.122 0.3063 1.523 2.5369 2.543 4.6234 4.775 6.5618 7.394 1.4293 1.999 2.4481 3.546 3.3464 4.91 2.7265 4.142 3.9696 6.031 10.694 11.16 4.5273 3.428 6.1496 4.961 10.066 9.135 0.9682 1.577 1.9333 3.159 2.9002 4.74l1.6605 2.718c2.1114 3.461 2.2289 3.866 2.9843 6.5 0.166 0.575 0.3586 1.249 0.6053 2.07 1.4477 4.532 3.5406 6.434 5.3886 8.111 1.3658 1.242 2.5454 2.313 3.3347 4.401 0.1892 0.517 0.3754 1.05 0.5577 1.579 0.8313 2.394 1.6909 4.867 3.3999 7.065 1.081 1.398 2.0359 2.381 2.9577 3.331 1.3101 1.351 2.5485 2.626 4.028 5.027 0.3084 0.501 0.5079 0.873 0.652 1.145 0.2797 0.524 0.6653 1.243 1.5884 1.243 0.8833 0 1.2818-0.695 1.4731-1.029 0.0536-0.094 0.1205-0.21 0.2059-0.345 2.5622-3.966 5.2565-6.379 7.8603-8.714 3.8105-3.413 7.4082-6.636 10.056-13.951 1.4443-3.984 3.3494-5.975 5.3685-8.083 2.7934-2.919 5.6803-5.935 7.5622-13.838l0.166-0.69c0.1827-0.756-0.2831-1.516-1.039-1.699-0.7575-0.181-1.5146 0.283-1.6974 1.039l-0.1677 0.695c-1.7056 7.162-4.209 9.778-6.8582 12.546-2.1316 2.227-4.3334 4.528-5.9802 9.07-2.4082 6.647-5.5967 9.506-9.29 12.814-2.4949 2.235-5.0687 4.541-7.6004 8.169-1.6004-2.568-2.9778-3.987-4.3098-5.361-0.8682-0.895-1.766-1.82-2.753-3.096-1.4259-1.834-2.1736-3.985-2.9642-6.262-0.1896-0.545-0.3805-1.091-0.5799-1.637-1.0338-2.735-2.5819-4.142-4.0803-5.503-1.739-1.58-3.3828-3.073-4.5929-6.862-0.2347-0.784-0.4255-1.448-0.5881-2.014-0.8378-2.921-1.0407-3.51-3.2876-7.192l-1.6605-2.718c-0.9918-1.623-1.9839-3.247-2.9791-4.867-0.0502-0.081-0.1073-0.158-0.1729-0.227-4.0567-4.324-5.8227-6.002-10.514-9.554-6.3392-4.836-7.4232-6.485-10.045-10.468-0.8665-1.317-1.9454-2.956-3.4219-5.018-1.4224-1.922-2.8989-3.624-4.5427-5.362 4.0786-0.024 7.6729 0.12 12.515 0.951 2.9058 0.52 5.3385 0.763 7.6493 0.763 2.0007 0 3.7667-0.181 5.637-0.372 1.7712-0.181 3.7783-0.387 6.3336-0.474 11.927-0.423 57.717-0.887 71.607-0.887h2.2722c5.2128 0.013 7.6223 0.028 11.808-0.717-3.5154 2.977-6.2903 5.616-9.1189 8.644-2.9002 3.119-4.4938 4.264-7.8101 6.128-0.6769 0.38-0.918 1.238-0.5375 1.917 0.3801 0.677 1.238 0.919 1.9166 0.538 3.3866-1.904 5.3153-3.249 8.4904-6.663 3.4485-3.691 6.8248-6.796 11.654-10.714 0.4242-0.343 0.8296-0.616 1.126-0.814 0.5345-0.36 1.0874-0.732 1.0874-1.532 5e-3 -0.801-0.6434-1.431-1.4726-1.431h-3e-3z"/>
   <path d="m456.77 1471.1c-2.1753 0-4.6199 0.305-7.4717 0.932-1.7561 0.382-3.7868 2.178-5.419 3.623-0.3685 0.325-0.7057 0.625-0.9969 0.868-2.4752 2.066-4.481 4.09-6.4195 6.047-3.2725 3.304-6.364 6.425-11.145 9.055-2.1045 1.123-4.7353 3.294-7.8016 6.445-0.5413 0.561-4.5409 5.347-4.5409 7.765 0 0.095 5e-3 0.185 0.015 0.273 0.0587 0.457 0.3753 1.473 2.1015 1.473 0.6232 0 1.434-0.108 2.2181-0.21 0.6151-0.08 1.2517-0.164 1.6056-0.167 1.3959 0.693 8.5239 5.944 10.908 7.702 0.7726 0.57 1.3675 1.008 1.6725 1.228 0.6701 0.483 1.1595 0.877 1.5533 1.194 0.7756 0.621 1.2869 1.035 2.0191 1.035 1.1509 0 1.6168-0.95 2.0693-1.868 0.2347-0.478 0.5281-1.073 0.9785-1.848 1.9672-3.226 7.0594-10.337 9.7173-12.33 1.0269-0.764 4.0785-3.701 9.3801-8.83 5.6953-5.51 12.784-12.365 17.943-16.919 0.4388-0.387 0.5915-1.006 0.3852-1.552-0.2059-0.546-0.7288-0.909-1.3135-0.909-4.4269-0.011-7.0444-0.817-9.5761-1.598-2.3546-0.723-4.5762-1.409-7.8822-1.409zm-40.515 33.57c0.764-1.436 2.2971-3.618 3.2824-4.638 2.8183-2.899 5.2814-4.95 7.1229-5.93 5.1544-2.835 8.3849-6.098 11.805-9.55 1.8935-1.91 3.8491-3.887 6.22-5.866 0.3084-0.256 0.6683-0.575 1.0621-0.922 1.1646-1.03 3.1134-2.755 4.1541-2.981 2.6557-0.583 4.903-0.866 6.8719-0.866 2.8818 0 4.8156 0.597 7.0526 1.285 1.9153 0.59 4.0181 1.239 6.9286 1.543-4.834 4.409-10.664 10.049-15.494 14.721-4.3849 4.241-8.1705 7.902-9.1069 8.597-3.1336 2.352-8.4368 9.84-10.452 13.144-0.4491 0.773-0.7559 1.379-0.9871 1.847-0.3873-0.31-0.8999-0.719-1.5683-1.202-0.3032-0.217-0.8866-0.648-1.6489-1.209-10.19-7.511-11.361-8.115-12.076-8.221-0.5191-0.081-1.4594 0.027-2.473 0.159-0.2278 0.03-0.4624 0.062-0.6906 0.089h-1e-3z"/>
   <path d="m322.28 1474.1c-0.1827 0-1.1295 0.038-3.7886 0.147-4.7825 0.198-12.789 0.526-14.878 0.526-0.0987 0-0.1827 0-0.2514-1e-3 -2.1161-0.057-4.2729-0.199-6.3572-0.337-2.0157-0.134-4.0987-0.272-6.1732-0.333-0.5598-0.017-1.0805 0.303-1.3186 0.81-0.2381 0.51-0.1493 1.111 0.2243 1.532 0.4981 0.56 1.2183 1.386 2.0848 2.378 5.8159 6.667 11.682 13.293 13.936 14.666 0.7674 0.477 1.6202 0.922 2.4429 1.354 0.3621 0.19 0.7207 0.377 1.066 0.565 0.613 0.334 1.3388 0.707 2.1311 1.116 3.4137 1.758 8.5728 4.414 9.9283 6.739l0.2715 0.465c3.6595 6.246 4.221 7.206 10.055 12.505 3.4283 3.098 4.7152 4.499 7.6596 8.338 0.3148 0.412 0.8309 0.617 1.3422 0.533 0.5109-0.084 0.9364-0.439 1.1042-0.93 0.1475-0.424 0.7206-2.103 1.431-4.186 1.1243-3.291 2.9036-8.501 3.4548-10.089 0.8348-0.453 2.6562-1.429 3.7402-2.011 0.6318-0.338 1.1195-0.6 1.2517-0.672 0.3873-0.209 0.6537-0.588 0.7206-1.024 0.0669-0.435-0.0738-0.876-0.3805-1.193-2.9774-3.074-5.5396-5.048-8.0177-6.958-3.8739-2.986-7.2203-5.563-11.168-11.696l-0.2969-0.463c-1.6184-2.516-2.8972-4.506-4.9395-6.865-1.8784-2.096-4.2128-4.616-4.764-4.826-0.1557-0.06-0.3419-0.092-0.5109-0.092zm-18.667 3.489c2.1482 0 10.19-0.331 14.994-0.528 1.3053-0.054 2.485-0.103 3.1451-0.128 0.9167 0.937 3.249 3.447 3.6947 3.945 1.8951 2.19 3.1254 4.103 4.6834 6.527l0.2986 0.462c4.2106 6.54 7.9053 9.387 11.817 12.401 2.0174 1.555 4.0918 3.154 6.3872 5.366-4.085 2.191-4.0901 2.2-4.2896 2.486h2e-3c-0.1793 0.305-0.5864 1.498-3.8169 10.954-0.211 0.616-0.4088 1.199-0.5881 1.722-2.0594-2.567-3.5372-4.074-6.3958-6.655-5.513-5.006-5.8918-5.652-9.5161-11.841l-0.2715-0.462c-1.7695-3.033-7.1448-5.801-11.071-7.822-0.7704-0.397-1.4795-0.761-2.0758-1.086-0.3569-0.194-0.7275-0.389-1.1011-0.585-0.779-0.408-1.585-0.83-2.2769-1.259-2.0664-1.259-9.538-9.818-13.206-14.024 0.9386 0.054 1.8737 0.116 2.7934 0.178 2.1114 0.139 4.2965 0.283 6.4649 0.341 0.0871 0.01 0.1991 0.01 0.3299 0.01z"/>
   <path d="m418.84 1530.9c-4.3904 0-7.9611 3.571-7.9611 7.963 0 4.388 3.5707 7.961 7.9611 7.961 4.3935 0 7.9693-3.571 7.9693-7.961-2e-3 -4.39-3.5758-7.963-7.9693-7.963zm0 13.107c-2.8367 0-5.1458-2.309-5.1458-5.144 0-2.837 2.3091-5.146 5.1458-5.146 2.8419 0 5.154 2.309 5.154 5.146-2e-3 2.837-2.3138 5.144-5.154 5.144z"/>
   <path d="m418.84 1546.8c-0.7777 0-1.4074 0.629-1.4074 1.407v2.787c0 0.777 0.6297 1.407 1.4074 1.407 0.7773 0 1.4075-0.63 1.4075-1.407v-2.787c0-0.778-0.6302-1.407-1.4075-1.407z"/>
   <path d="m410.77 1542.1c-0.2398 0-0.4808 0.06-0.7022 0.189l-2.418 1.397c-0.6735 0.39-0.903 1.25-0.5144 1.924 0.3887 0.674 1.25 0.903 1.9235 0.515l2.4181-1.398c0.6739-0.389 0.9034-1.25 0.5143-1.923-0.2613-0.451-0.7353-0.704-1.2213-0.704z"/>
   <path d="m408.35 1531.4c-0.4877 0-0.9617 0.253-1.2217 0.707-0.3869 0.674-0.154 1.535 0.5195 1.922l2.4181 1.389c0.6751 0.387 1.5348 0.154 1.9217-0.519 0.3874-0.674 0.1544-1.535-0.5195-1.922l-2.4176-1.389c-0.2213-0.128-0.4624-0.188-0.7005-0.188z"/>
   <path d="m418.84 1525.4c-0.7777 0-1.4074 0.63-1.4074 1.407v2.794c0 0.777 0.6297 1.407 1.4074 1.407 0.7773 0 1.4075-0.63 1.4075-1.407v-2.794c0-0.775-0.6302-1.407-1.4075-1.407z"/>
   <path d="m429.34 1531.4c-0.2381 0-0.4796 0.06-0.7022 0.188l-2.4112 1.389c-0.6739 0.389-0.9051 1.248-0.5178 1.922 0.3887 0.673 1.2466 0.905 1.9218 0.518l2.4112-1.389c0.6739-0.389 0.9051-1.249 0.5177-1.923-0.2578-0.452-0.7322-0.705-1.2195-0.705z"/>
   <path d="m426.93 1542.1c-0.486 0-0.9583 0.251-1.2199 0.702-0.3904 0.673-0.1609 1.533 0.5113 1.923l2.4112 1.398c0.6717 0.39 1.5331 0.161 1.9234-0.511 0.3904-0.674 0.1609-1.533-0.5108-1.924l-2.4112-1.397c-0.2214-0.129-0.4625-0.191-0.704-0.191z"/>
   <path d="m414.4 1545.2c-0.4856 0-0.9583 0.251-1.2195 0.704l-0.855 1.476c-0.3886 0.674-0.1591 1.533 0.5148 1.924 0.6717 0.39 1.5348 0.159 1.9235-0.515l0.8544-1.476c0.3891-0.674 0.1592-1.533-0.5143-1.924-0.2213-0.127-0.4641-0.189-0.7039-0.189z"/>
   <path d="m409.95 1537.5h-1.7072c-0.7777 0-1.4075 0.629-1.4075 1.407 0 0.777 0.6298 1.407 1.4075 1.407h1.7072c0.7777 0 1.4079-0.63 1.4079-1.407 0-0.776-0.6302-1.407-1.4079-1.407z"/>
   <path d="m413.55 1528.3c-0.2394 0-0.4843 0.062-0.7069 0.192-0.6722 0.39-0.9 1.251-0.5096 1.925l0.8545 1.468c0.3907 0.671 1.2517 0.899 1.9256 0.509 0.6717-0.39 0.8995-1.252 0.5091-1.925l-0.8544-1.468c-0.2613-0.449-0.734-0.701-1.2183-0.701z"/>
   <path d="m424.15 1528.3c-0.4877 0-0.96 0.253-1.2217 0.706l-0.8459 1.468c-0.3887 0.673-0.1574 1.535 0.5177 1.922 0.6735 0.388 1.5349 0.155 1.9218-0.516l0.8463-1.468c0.3887-0.674 0.1575-1.535-0.5177-1.922-0.2214-0.129-0.4624-0.19-0.7005-0.19z"/>
   <path d="m429.45 1537.5h-1.6992c-0.7777 0-1.4078 0.629-1.4078 1.407 0 0.777 0.6301 1.407 1.4078 1.407h1.6992c0.7772 0 1.4074-0.63 1.4074-1.407 0-0.776-0.6302-1.407-1.4074-1.407z"/>
   <path d="m423.3 1545.2c-0.238 0-0.4778 0.061-0.6987 0.186-0.6752 0.387-0.9082 1.247-0.5212 1.92l0.8463 1.477c0.3869 0.673 1.2466 0.908 1.9218 0.521 0.6751-0.387 0.9081-1.247 0.5211-1.92l-0.8463-1.477c-0.2595-0.452-0.7357-0.707-1.223-0.707z"/>
   <path d="m347.89 1489.8c-0.6099 0-1.1715 0.401-1.3508 1.016-0.2179 0.745 0.2128 1.528 0.9588 1.744 0.0686 0.02 6.9453 2.031 10.987 4.115 2.974 1.532 6.3555 9.064 7.5351 12.152l-0.1239 9.311c-7e-3 0.527 0.2801 1.012 0.7425 1.261 4.0515 2.171 8.4686 5.469 8.5839 6.917 0.29 3.614 7.1869 9.326 8.5677 10.436 0.6066 0.486 1.4928 0.39 1.9788-0.217 0.4877-0.604 0.3904-1.491-0.2162-1.978-3.5188-2.829-7.3962-6.872-7.5253-8.466-0.2664-3.334-6.4576-7.168-9.308-8.762l0.1158-8.731c2e-3 -0.175-0.0287-0.348-0.0888-0.51-0.4375-1.176-4.4089-11.562-8.9765-13.916-4.2861-2.208-11.198-4.229-11.49-4.315-0.1274-0.038-0.26-0.057-0.3904-0.057z"/>
   <path d="m351.15 1535.9c-0.211 0-0.4272 0.048-0.628 0.149-0.6953 0.346-0.9771 1.193-0.6284 1.888 0.335 0.672 1.1981 1.798 3.2052 1.798 1.7948 0 3.6663-0.913 3.8744-1.019 0.6953-0.348 0.975-1.194 0.6267-1.89-0.3487-0.693-1.1951-0.975-1.8904-0.627-0.4002 0.2-1.6554 0.719-2.6107 0.719-0.5662 0-0.6516-0.169-0.6868-0.241-0.2479-0.493-0.7455-0.777-1.262-0.777z"/>
   <path d="m351.15 1535.9c-0.5161 0-1.0137 0.284-1.2599 0.779-0.0369 0.072-0.1205 0.241-0.6889 0.241-0.9652 0-2.2452-0.533-2.6188-0.719-0.6954-0.348-1.5417-0.067-1.8883 0.629-0.3488 0.695-0.0674 1.541 0.628 1.888 0.208 0.104 2.083 1.017 3.8791 1.017 2.0075 0 2.8706-1.126 3.2073-1.798 0.3466-0.695 0.0652-1.543-0.6301-1.888-0.2029-0.101-0.4174-0.149-0.6284-0.149z"/>
   <path d="m344.24 1543.3c-0.2128 0-0.4273 0.048-0.6302 0.149-0.6953 0.348-0.9754 1.194-0.6267 1.89 0.335 0.67 1.1998 1.793 3.2074 1.793 1.7943 0 3.6676-0.91 3.8756-1.014 0.6954-0.347 0.9785-1.193 0.6315-1.888-0.3466-0.696-1.1913-0.979-1.8883-0.632-0.4024 0.198-1.6605 0.717-2.6188 0.717-0.5701 0-0.6555-0.169-0.6907-0.241-0.2479-0.49-0.7438-0.774-1.2598-0.774z"/>
   <path d="m344.24 1543.3c-0.5161 0-1.0124 0.284-1.2603 0.776-0.0369 0.072-0.1206 0.241-0.6885 0.241-0.957 0-2.2122-0.518-2.6141-0.717-0.6971-0.346-1.54-0.061-1.887 0.633-0.3449 0.695-0.0652 1.538 0.6284 1.885 0.2081 0.104 2.0796 1.014 3.871 1.014 2.0058 0 2.8684-1.124 3.2052-1.793 0.3487-0.694 0.069-1.542-0.6267-1.89-0.1991-0.101-0.4153-0.149-0.628-0.149z"/>
   <path d="m483.63 1469.8c-2.5703 0-5.4624 0.36-8.8439 1.102-1.6674 0.369-3.5874 1.875-5.2466 3.301-0.4221 0.364-0.5916 0.944-0.429 1.477 0.1626 0.534 0.6237 0.921 1.1779 0.988 0.1544 0.018 0.3102 0.037 0.4676 0.052-4.834 4.411-10.664 10.05-15.498 14.726-4.3848 4.24-8.17 7.902-9.1051 8.597-2.4781 1.862-6.1144 6.79-7.5622 8.822-0.3436 0.483-0.3487 1.128-0.0133 1.614 0.335 0.488 0.9381 0.714 1.513 0.565 6.9654-1.805 17.494-4.843 22.993-6.634 0.4607-0.151 0.8124-0.528 0.93-0.999 0.1171-0.47-0.0172-0.968-0.3539-1.318-0.4757-0.492-0.737-1.14-0.737-1.824 0-1.456 1.1878-2.638 2.6471-2.638 0.6302 0 1.235 0.22 1.7043 0.621 0.3269 0.28 0.764 0.394 1.1848 0.31 0.4204-0.084 0.7824-0.354 0.9802-0.735 0.4572-0.891 1.3572-1.445 2.3477-1.45 0.4054 0 0.7906-0.179 1.0557-0.484 9.112-10.496 11.825-10.617 14.965-10.758 3.4922-0.156 7.4515-0.333 17.591-9.29 0.4393-0.387 0.5915-1.005 0.3856-1.551-0.2063-0.546-0.7292-0.91-1.3139-0.91-5.3285-0.01-8.4737-0.979-11.515-1.915-2.79-0.858-5.4221-1.669-9.3248-1.669zm-9.2664 4.294c0.3753-0.214 0.7292-0.376 1.0256-0.44 3.1786-0.697 5.8746-1.038 8.2391-1.038 3.4789 0 5.8025 0.716 8.4939 1.544 2.3777 0.732 4.9999 1.54 8.7049 1.878-7.3898 6.029-10.431 6.167-13.149 6.287-3.7401 0.168-6.974 0.31-16.582 11.284-1.2685 0.163-2.428 0.764-3.291 1.687-0.6971-0.313-1.4611-0.479-2.2401-0.479-3.013 0-5.4628 2.446-5.4628 5.454 0 0.699 0.1325 1.381 0.3839 2.014-4.6229 1.453-11.465 3.439-17.216 5.002 1.8767-2.406 3.5003-4.187 4.5646-4.987 1.0269-0.762 4.0768-3.701 9.3784-8.83 5.6953-5.508 12.784-12.365 17.943-16.919 0.4375-0.385 0.5915-1.004 0.3856-1.55-0.1879-0.506-0.6469-0.854-1.1766-0.907h-2e-3z"/>
   <path d="m298.55 1474.6c-0.2929 0-0.5881 0.091-0.8412 0.28-0.6232 0.465-0.7524 1.347-0.2865 1.969l3.7285 4.997c0.1592 0.214 0.3767 0.379 0.6268 0.474l11.154 4.261c1.1329 0.925 7.147 5.832 10.079 8.062 2.3455 1.783 4.6932 7.327 5.4002 9.313 0.2599 0.732 1.0659 1.116 1.7982 0.854 0.7322-0.261 1.114-1.065 0.8545-1.797-0.2883-0.812-2.9225-8.006-6.3508-10.611-3.1366-2.382-10.106-8.084-10.176-8.14-0.1176-0.095-0.2484-0.171-0.3891-0.226l-10.985-4.196-3.4836-4.67c-0.2767-0.374-0.7005-0.568-1.1295-0.568z"/>
   <path d="m418.17 1467.6h-8.5342c-0.7773 0-1.4074 0.63-1.4074 1.408 0 0.777 0.6301 1.407 1.4074 1.407h8.5342c0.7773 0 1.4074-0.63 1.4074-1.407 0-0.778-0.6301-1.408-1.4074-1.408z"/>
   <path d="m465.76 1461.9h-35.235c-0.7773 0-1.4057 0.63-1.4057 1.408 0 0.777 0.6301 1.407 1.4057 1.407h35.235c0.7773 0 1.4075-0.63 1.4075-1.407 0-0.778-0.6302-1.408-1.4075-1.408z"/>
   <path d="m410.62 1459.9h-15.293c-0.7777 0-1.4074 0.63-1.4074 1.408 0 0.777 0.6297 1.407 1.4074 1.407h15.293c0.7777 0 1.4074-0.63 1.4074-1.407 0-0.778-0.6297-1.408-1.4074-1.408z"/>
   <path d="m440.79 1452.5h-32.48c-0.7773 0-1.4075 0.631-1.4075 1.408 0 0.778 0.6302 1.408 1.4075 1.408h32.48c0.7773 0 1.4075-0.63 1.4075-1.408 0-0.777-0.6285-1.408-1.4075-1.408z"/>
   <path d="m392.49 1450.1h-15.295c-0.7773 0-1.4074 0.63-1.4074 1.408 0 0.777 0.6301 1.407 1.4074 1.407h15.295c0.7777 0 1.4078-0.63 1.4078-1.407 0-0.778-0.6301-1.408-1.4078-1.408z"/>
   <path d="m360.5 1466.5h-7.4395c-0.7777 0-1.4078 0.63-1.4078 1.408 0 0.777 0.6301 1.407 1.4078 1.407h7.4395c0.7777 0 1.4075-0.63 1.4075-1.407 0-0.778-0.6298-1.408-1.4075-1.408z"/>
   <path d="m386.04 1463.7h-17.37c-0.7773 0-1.4074 0.63-1.4074 1.408 0 0.777 0.6301 1.407 1.4074 1.407h17.37c0.7777 0 1.4079-0.63 1.4079-1.407 0-0.778-0.6302-1.408-1.4079-1.408z"/>
   <path d="m340.33 1468.1h-16.18c-0.7777 0-1.4074 0.63-1.4074 1.408 0 0.777 0.6297 1.407 1.4074 1.407h16.18c0.7773 0 1.4074-0.63 1.4074-1.407 0-0.778-0.6301-1.408-1.4074-1.408z"/>
   <path d="m346.83 1457.4h-39.272c-0.7772 0-1.4074 0.631-1.4074 1.408 0 0.778 0.6302 1.408 1.4074 1.408h39.274c0.7772 0 1.4074-0.63 1.4074-1.408-2e-3 -0.777-0.6319-1.408-1.4092-1.408z"/>
   <path d="m480.84 1493.6c-0.7906 0-1.558 0.165-2.2585 0.485-1.4061-0.64-3.1267-0.634-4.5208-1e-3 -0.7005-0.319-1.4679-0.484-2.2572-0.484-1.5451 0-2.9779 0.636-3.9932 1.726-0.6971-0.315-1.4594-0.481-2.2401-0.481-3.013 0-5.4628 2.446-5.4628 5.454 0 1.479 0.6018 2.877 1.6305 3.891-0.2981 0.685-0.4573 1.429-0.4573 2.183 0 2.42 1.5782 4.477 3.7599 5.193-0.015 0.166-0.0232 0.332-0.0232 0.499 0 3.08 2.5905 5.576 5.6803 5.451 0.9716 1.624 2.7364 2.654 4.6899 2.654 2.5956 0 4.7739-1.823 5.3221-4.256 2.0054-0.272 3.7028-1.639 4.3968-3.53 2.0406-0.81 3.4468-2.822 3.4468-5.078 0-1.285-0.4595-2.521-1.2668-3.493 0.3685-0.746 0.5645-1.574 0.5645-2.422 0-1.567-0.682-3.063-1.8484-4.09-0.7403-2.205-2.7964-3.703-5.1625-3.703zm-2.2602 3.5c0.2762 0 0.5512-0.08 0.791-0.243 0.4272-0.29 0.9347-0.444 1.4692-0.444 1.2268 0 2.2825 0.834 2.5656 2.029 0.0768 0.329 0.2715 0.617 0.5444 0.816 0.6906 0.5 1.0874 1.279 1.0874 2.133 0 0.634-0.2244 1.242-0.6314 1.715-0.2583 0.298-0.3788 0.69-0.3338 1.082 0.0455 0.392 0.2531 0.745 0.5731 0.977 0.6855 0.498 1.0943 1.297 1.0943 2.141 0 1.238-0.8712 2.325-2.0727 2.582-0.553 0.12-0.9802 0.557-1.0858 1.111-0.238 1.244-1.3323 2.147-2.6007 2.147-0.1056 0-0.2261-0.01-0.3702-0.028-0.4123-0.054-0.8262 0.076-1.1312 0.358-0.3063 0.28-0.4723 0.682-0.4556 1.096l7e-3 0.166c-0.0137 1.444-1.1934 2.614-2.6394 2.614-1.1479 0-2.1598-0.731-2.5202-1.82-0.2329-0.705-0.975-1.109-1.6939-0.92-0.2312 0.061-0.459 0.091-0.6971 0.091-1.4593 0-2.6475-1.185-2.6475-2.641 0-0.362 0.0772-0.728 0.2294-1.083 0.1862-0.435 0.1407-0.933-0.1188-1.328-0.2612-0.394-0.7022-0.632-1.1745-0.632-1.488 0-2.6711-1.188-2.6711-2.648 0-0.599 0.2063-1.189 0.5829-1.655 0.26-0.322 0.3638-0.743 0.2866-1.148-0.0768-0.405-0.3299-0.757-0.6902-0.96-0.8326-0.471-1.3504-1.356-1.3504-2.309 0-1.456 1.1878-2.639 2.6471-2.639 0.6302 0 1.2333 0.221 1.6979 0.623 0.3264 0.283 0.7674 0.399 1.1912 0.317 0.4238-0.084 0.7876-0.357 0.9836-0.743 0.4538-0.889 1.359-1.442 2.3627-1.442 0.5345 0 1.042 0.154 1.4692 0.444 0.4796 0.325 1.111 0.323 1.5889 0 0.8309-0.572 2.071-0.578 2.9289 0 0.233 0.161 0.5075 0.241 0.7842 0.241z"/>
   <path d="m474.33 1485.3c-0.7773 0-1.4074 0.63-1.4074 1.407v18.352c0 0.777 0.6301 1.408 1.4074 1.408 0.7777 0 1.4078-0.631 1.4078-1.408v-18.352c0-0.777-0.6301-1.407-1.4078-1.407z"/>
   <path d="m474.33 1485.3h-8.5655c-0.7777 0-1.4079 0.63-1.4079 1.407 0 0.778 0.6302 1.408 1.4079 1.408h8.5655c0.7777 0 1.4078-0.63 1.4078-1.408 0-0.777-0.6301-1.407-1.4078-1.407z"/>
   <path d="m474.33 1499.6c-0.3921 0-0.7807 0.163-1.0587 0.479-0.513 0.586-0.4543 1.475 0.1304 1.986l3.1053 2.723c0.5846 0.513 1.4743 0.454 1.9856-0.131 0.5126-0.584 0.4539-1.472-0.1308-1.985l-3.1048-2.723c-0.2664-0.235-0.5967-0.349-0.927-0.349z"/>
   <path d="m474.33 1496.3c-0.3719 0-0.7438 0.147-1.0201 0.439l-2.6896 2.834c-0.5345 0.564-0.5109 1.454 0.0519 1.989 0.5633 0.534 1.4546 0.511 1.9891-0.052l2.6892-2.834c0.5345-0.565 0.5113-1.454-0.0519-1.989-0.2716-0.259-0.6199-0.387-0.9686-0.387z"/>
   <path d="m304.83 1466.3h-16.18c-0.7773 0-1.4074 0.63-1.4074 1.408 0 0.777 0.6301 1.407 1.4074 1.407h16.18c0.7773 0 1.4075-0.63 1.4075-1.407 0-0.778-0.6302-1.408-1.4075-1.408z"/>
   <path d="m366.02 1546.8c-0.2111 0-0.4255 0.048-0.628 0.149-0.6958 0.347-0.9772 1.193-0.6302 1.889 0.3351 0.673 1.1999 1.801 3.2104 1.801 1.7913 0 3.6582-0.908 3.8658-1.012 0.6953-0.347 0.9767-1.194 0.6284-1.889-0.347-0.695-1.1929-0.977-1.8887-0.628-0.4002 0.197-1.6519 0.714-2.6072 0.714-0.5697 0-0.655-0.171-0.6919-0.245-0.2445-0.494-0.7421-0.779-1.2586-0.779z"/>
   <path d="m366.02 1546.8c-0.516 0-1.0136 0.285-1.2598 0.777-0.0369 0.074-0.1223 0.245-0.6954 0.245-0.9638 0-2.2422-0.53-2.6141-0.714-0.6953-0.347-1.5399-0.065-1.8887 0.63-0.3466 0.695-0.0652 1.542 0.6302 1.889 0.208 0.104 2.0779 1.01 3.8709 1.01 2.0123 0 2.8771-1.128 3.2138-1.799 0.3466-0.696 0.0652-1.542-0.6284-1.889-0.2012-0.102-0.4157-0.149-0.6285-0.149z"/>
   <path d="m305.72 1490.3c-0.2064 0-0.4123 0.046-0.6049 0.136-0.4894 0.233-0.8026 0.729-0.8026 1.272v1.33l-8.7602-0.714c-0.6001-0.05-1.1612 0.287-1.4027 0.836-0.2411 0.55-0.109 1.192 0.332 1.599l5.8111 5.382h-1.7814c-0.5796 0-1.0973 0.354-1.3105 0.894-0.2111 0.537-0.0721 1.152 0.3522 1.546l4.0699 3.779h-1.1963c-0.58 0-1.099 0.355-1.3105 0.893-0.2111 0.539-0.0704 1.152 0.3539 1.546l2.5583 2.37c-0.4826 0.08-0.8948 0.409-1.0771 0.874-0.2115 0.54-0.0704 1.153 0.3535 1.547l4.9901 4.621c0.5396 0.5 1.3739 0.5 1.9136 0l4.8961-4.534c0.3368-0.256 0.5547-0.663 0.5547-1.119 0-0.701-0.5113-1.282-1.1814-1.389l2.4631-2.281c0.3368-0.256 0.5547-0.664 0.5547-1.119 0-0.778-0.6302-1.408-1.4075-1.408h-1.2118l3.9817-3.691c0.3367-0.256 0.5529-0.662 0.5529-1.119 0-0.778-0.6302-1.408-1.4079-1.408h-1.7943l2.2151-2.054c0.3316-0.307 0.4959-0.756 0.4406-1.205s-0.3234-0.843-0.7202-1.061c-1.2771-0.7-2.5421-1.352-3.6582-1.927-0.4908-0.253-0.9549-0.491-1.3791-0.714-0.236-0.124-0.5024-0.177-0.7675-0.155l-0.2376 0.018c-0.1192-0.315-0.3505-0.583-0.6572-0.746-0.7824-0.415-1.5532-0.824-2.2216-1.233-0.151-0.089-0.3504-0.238-0.6151-0.451-0.2565-0.208-0.5714-0.315-0.8879-0.315zm0 5.672c0.3517 0 0.6936-0.132 0.9531-0.372 0.2883-0.266 0.4543-0.641 0.4543-1.035v-0.312c0.0836 0.046 0.166 0.089 0.2496 0.134v0.178c0 0.394 0.1643 0.769 0.4526 1.035 0.2883 0.267 0.6752 0.401 1.069 0.369l1.2633-0.102c0.3268 0.169 0.6739 0.346 1.0338 0.533 0.5885 0.303 1.2182 0.626 1.8668 0.966l-3.3982 3.154c-0.4239 0.394-0.5646 1.007-0.3535 1.547 0.211 0.538 0.7322 0.893 1.3105 0.893h1.7845l-4.0752 3.778c-0.4238 0.394-0.5649 1.007-0.3534 1.547 0.211 0.539 0.7322 0.893 1.31 0.893h1.1981l-2.5369 2.349c-0.4255 0.394-0.5662 1.007-0.3535 1.547 0.1828 0.466 0.595 0.794 1.0776 0.874l-1.4194 1.316-1.4195-1.316c0.4826-0.08 0.8948-0.408 1.0776-0.874 0.211-0.54 0.0703-1.153-0.3535-1.547l-2.5369-2.349h1.1895c0.58 0 1.0978-0.354 1.3105-0.893 0.2111-0.538 0.0721-1.153-0.3517-1.547l-4.0704-3.778h1.7879c0.5799 0 1.0994-0.355 1.3105-0.893 0.211-0.54 0.0703-1.153-0.3535-1.547l-5.4628-5.059 6.2251 0.508h0.1141z"/>
  </g>
 </g>
 <g transform="matrix(.35278 0 0 -.35278 -130.28 483.31)">
  <g clip-path="url(#clipPath1440)">
   <g transform="translate(242.56 1620.2)">
    <text transform="scale(1,-1)" fill="#000000" font-family="'Gill Sans'" font-size="29px" font-weight="bold"><tspan x="0 34.098202 42.978001 51.8578 70.336601 78.946701 96.236504 111.0613 129.62421 143.6573 160.5643 174.5974 188.20419 205.494 234.20979" y="0">Wild ecosystems</tspan></text>
   </g>
  </g>
 </g>
 <g transform="matrix(.35278 0 0 -.35278 -130.28 483.31)">
  <g clip-path="url(#clipPath1454)">
   <g transform="translate(245.65 1336.3)">
    <text transform="scale(1,-1)" fill="#000000" font-family="'Gill Sans'" font-size="29px" font-weight="bold"><tspan x="0 21.721001 40.283901 53.890701 70.855698 89.305496 98.185303 113.0101 129.56329 138.4431 147.05321 163.78909 180.7541 193.80991 212.2887 229.57851 248.02831" y="0">Botanical gardens</tspan></text>
   </g>
  </g>
 </g>
 <g transform="matrix(.35278 0 0 -.35278 -130.28 483.31)">
  <g clip-path="url(#clipPath1468)">
   <g transform="translate(242.53 1045)">
    <text transform="scale(1,-1)" fill="#000000" font-family="'Gill Sans'" font-size="29px" font-weight="bold"><tspan x="0 18.3512 35.3162 53.794998 72.357903 86.248901 102.8021 116.4089 134.9718 149.2746 166.18159 174.7917 193.27049 202.1503 219.1153 237.56509 251.17191" y="0">Laboratory plants</tspan></text>
   </g>
  </g>
 </g>
 <g transform="matrix(.35278 0 0 -.35278 -130.28 483.31)">
  <g clip-path="url(#clipPath1482)">
   <g transform="translate(627.83 1613.8)">
    <text transform="scale(1,-1)" fill="#000000" font-family="'Gill Sans'" font-size="26px" font-weight="600"><tspan x="0 20.0954 26.5434 38.948002 52.3666 63.2346 73.733398 80.181396 89.778" y="0">Diversity</tspan></text>
   </g>
   <g transform="translate(627.33 1590.7)">
    <text transform="scale(1,-1)" fill="#000000" font-family="'Gill Sans'" font-size="19px"><tspan x="0 6.1408 13.452 22.952 32.053001 40.375 44.539799 53.6408 60.952" y="0">(species)</tspan></text>
   </g>
  </g>
 </g>
 <g transform="matrix(.35278 0 0 -.35278 -130.28 483.31)">
  <g clip-path="url(#clipPath1504)">
   <g transform="translate(627.83 1549.3)">
    <text transform="scale(1,-1)" fill="#000000" font-family="'Gill Sans'" font-size="26px" font-weight="600"><tspan x="0 13.8892 26.444599 48.445801 62.6912 69.139198 75.587196 89.653198" y="0">Sampling</tspan></text>
   </g>
   <g transform="translate(631.68 1526.2)">
    <text transform="scale(1,-1)" fill="#000000" font-family="'Gill Sans'" font-size="19px"><tspan x="0 6.1408 15.2418 23.351 30.662201 34.827 44.327 53.428001 60.739201 68.0504 73.328598 83.812798 88.562798" y="0">(easiness of)</tspan></text>
   </g>
  </g>
 </g>
 <g transform="matrix(.35278 0 0 -.35278 -130.28 483.31)">
  <g clip-path="url(#clipPath1526)">
   <g transform="translate(627.33 1484.7)">
    <text transform="scale(1,-1)" fill="#000000" font-family="'Gill Sans'" font-size="26px" font-weight="600"><tspan x="0 13.9386 27.9786 42.044601 54.028 63.624599 70.072601 84.9758 99.041801" y="0">Functions</tspan></text>
   </g>
   <g transform="translate(627.33 1461.6)">
    <text transform="scale(1,-1)" fill="#000000" font-family="'Gill Sans'" font-size="19px"><tspan x="0 6.1408 15.6408 25.1408 34.827 43.928001 51.452 58.763199 65.090202 73.199402 82.699402 92.385597 96.5504 106.0504 114.1596 119.4378 129.922 134.672" y="0">(understanding of)</tspan></text>
   </g>
  </g>
 </g>
 <g transform="matrix(.35278 0 0 -.35278 -130.28 483.31)">
  <g clip-path="url(#clipPath1548)">
   <g transform="translate(627.83 1328.6)">
    <text transform="scale(1,-1)" fill="#000000" font-family="'Gill Sans'" font-size="26px" font-weight="600"><tspan x="0 20.0954 26.5434 38.948002 52.3666 63.2346 73.733398 80.181396 89.778" y="0">Diversity</tspan></text>
   </g>
   <g transform="translate(627.33 1305.4)">
    <text transform="scale(1,-1)" fill="#000000" font-family="'Gill Sans'" font-size="19px"><tspan x="0 6.1408 13.452 22.952 32.053001 40.375 44.539799 53.6408 60.952" y="0">(species)</tspan></text>
   </g>
  </g>
 </g>
 <g transform="matrix(.35278 0 0 -.35278 -130.28 483.31)">
  <g clip-path="url(#clipPath1570)">
   <g transform="translate(627.83 1264)">
    <text transform="scale(1,-1)" fill="#000000" font-family="'Gill Sans'" font-size="26px" font-weight="600"><tspan x="0 13.8892 26.444599 48.445801 62.6912 69.139198 75.587196 89.653198" y="0">Sampling</tspan></text>
   </g>
   <g transform="translate(631.68 1240.9)">
    <text transform="scale(1,-1)" fill="#000000" font-family="'Gill Sans'" font-size="19px"><tspan x="0 6.1408 15.2418 23.351 30.662201 34.827 44.327 53.428001 60.739201 68.0504 73.328598 83.812798 88.562798" y="0">(easiness of)</tspan></text>
   </g>
  </g>
 </g>
 <g transform="matrix(.35278 0 0 -.35278 -130.28 483.31)">
  <g clip-path="url(#clipPath1592)">
   <g transform="translate(627.33 1199.4)">
    <text transform="scale(1,-1)" fill="#000000" font-family="'Gill Sans'" font-size="26px" font-weight="600"><tspan x="0 13.9386 27.9786 42.044601 54.028 63.624599 70.072601 84.9758 99.041801" y="0">Functions</tspan></text>
   </g>
   <g transform="translate(627.33 1176.3)">
    <text transform="scale(1,-1)" fill="#000000" font-family="'Gill Sans'" font-size="19px"><tspan x="0 6.1408 15.6408 25.1408 34.827 43.928001 51.452 58.763199 65.090202 73.199402 82.699402 92.385597 96.5504 106.0504 114.1596 119.4378 129.922 134.672" y="0">(understanding of)</tspan></text>
   </g>
  </g>
 </g>
 <g transform="matrix(.35278 0 0 -.35278 -130.28 483.31)">
  <g clip-path="url(#clipPath1614)">
   <g transform="translate(627.83 1043.3)">
    <text transform="scale(1,-1)" fill="#000000" font-family="'Gill Sans'" font-size="26px" font-weight="600"><tspan x="0 20.0954 26.5434 38.948002 52.3666 63.2346 73.733398 80.181396 89.778" y="0">Diversity</tspan></text>
   </g>
   <g transform="translate(627.33 1020.2)">
    <text transform="scale(1,-1)" fill="#000000" font-family="'Gill Sans'" font-size="19px"><tspan x="0 6.1408 13.452 22.952 32.053001 40.375 44.539799 53.6408 60.952" y="0">(species)</tspan></text>
   </g>
  </g>
 </g>
 <g transform="matrix(.35278 0 0 -.35278 -130.28 483.31)">
  <g clip-path="url(#clipPath1636)">
   <g transform="translate(627.83 978.72)">
    <text transform="scale(1,-1)" fill="#000000" font-family="'Gill Sans'" font-size="26px" font-weight="600"><tspan x="0 13.8892 26.444599 48.445801 62.6912 69.139198 75.587196 89.653198" y="0">Sampling</tspan></text>
   </g>
   <g transform="translate(631.68 955.6)">
    <text transform="scale(1,-1)" fill="#000000" font-family="'Gill Sans'" font-size="19px"><tspan x="0 6.1408 15.2418 23.351 30.662201 34.827 44.327 53.428001 60.739201 68.0504 73.328598 83.812798 88.562798" y="0">(easiness of)</tspan></text>
   </g>
  </g>
 </g>
 <g transform="matrix(.35278 0 0 -.35278 -130.28 483.31)">
  <g clip-path="url(#clipPath1658)">
   <g transform="translate(627.33 914.16)">
    <text transform="scale(1,-1)" fill="#000000" font-family="'Gill Sans'" font-size="26px" font-weight="600"><tspan x="0 13.9386 27.9786 42.044601 54.028 63.624599 70.072601 84.9758 99.041801" y="0">Functions</tspan></text>
   </g>
   <g transform="translate(627.33 891.04)">
    <text transform="scale(1,-1)" fill="#000000" font-family="'Gill Sans'" font-size="19px"><tspan x="0 6.1408 15.6408 25.1408 34.827 43.928001 51.452 58.763199 65.090202 73.199402 82.699402 92.385597 96.5504 106.0504 114.1596 119.4378 129.922 134.672" y="0">(understanding of)</tspan></text>
   </g>
  </g>
 </g>
 <g transform="matrix(.35278 0 0 -.35278 -130.28 483.31)">
  <g clip-path="url(#clipPath1680)">
   <g transform="translate(627.33 848.6)">
    <text transform="scale(1,-1)" fill="#000000" font-family="'Gill Sans'" font-size="26px" font-weight="600"><tspan x="0 18.8526 33.755798 47.8218 62.0672 68.515198 78.111801 84.559799 99.462997 113.529" y="0">Conditions</tspan></text>
   </g>
   <g transform="translate(627.33 825.48)">
    <text transform="scale(1,-1)" fill="#000000" font-family="'Gill Sans'" font-size="19px"><tspan x="0 6.1408 14.4628 24.947001 34.446999 40.773998 47.824902 58.309101 62.4739 67.752098 78.236298 82.986298 88.264503 97.365501 106.5786 114.9006 119.0654 126.1163 136.60049 146.10049 160.7495 169.85049 179.35049 185.67751 193.7867 197.95151" y="0">(control of environmental)</tspan></text>
   </g>
  </g>
 </g>
 <g transform="matrix(.35278 0 0 -.35278 -130.28 483.31)">
  <g clip-path="url(#clipPath1702)">
   <path d="m821.65 1628.1c4.3211-4.321 4.3211-11.327 0-15.648-4.3212-4.321-11.327-4.321-15.648 0-4.3211 4.321-4.3211 11.327 0 15.648 4.3212 4.321 11.327 4.321 15.648 0z"/>
   <g transform="matrix(1 0 0 -1 802.76 1631.3)">
    <path d="m18.889 3.2409c4.3212 4.3211 4.3212 11.327 0 15.648-4.3211 4.3212-11.327 4.3212-15.648 0-4.3211-4.3211-4.3211-11.327 0-15.648 4.3211-4.3211 11.327-4.3211 15.648 0z" fill="none" stroke="#000" stroke-width="3"/>
   </g>
  </g>
 </g>
 <g transform="matrix(.35278 0 0 -.35278 -130.28 483.31)">
  <g clip-path="url(#clipPath1716)">
   <path d="m859.43 1628.1c4.3212-4.321 4.3212-11.327 0-15.648-4.3211-4.321-11.327-4.321-15.648 0-4.3212 4.321-4.3212 11.327 0 15.648 4.3211 4.321 11.327 4.321 15.648 0z"/>
   <g transform="matrix(1 0 0 -1 840.54 1631.3)">
    <path d="m18.889 3.2409c4.3212 4.3211 4.3212 11.327 0 15.648-4.3211 4.3212-11.327 4.3212-15.648 0-4.3211-4.3211-4.3211-11.327 0-15.648 4.3211-4.3211 11.327-4.3211 15.648 0z" fill="none" stroke="#000" stroke-width="3"/>
   </g>
  </g>
 </g>
 <g transform="matrix(.35278 0 0 -.35278 -130.28 483.31)">
  <g clip-path="url(#clipPath1730)">
   <path d="m897.2 1628.1c4.3212-4.321 4.3212-11.327 0-15.648-4.3211-4.321-11.327-4.321-15.648 0-4.3212 4.321-4.3212 11.327 0 15.648 4.3211 4.321 11.327 4.321 15.648 0z"/>
   <g transform="matrix(1 0 0 -1 878.31 1631.3)">
    <path d="m18.889 3.2409c4.3212 4.3211 4.3212 11.327 0 15.648-4.3211 4.3212-11.327 4.3212-15.648 0-4.3211-4.3211-4.3211-11.327 0-15.648 4.3211-4.3211 11.327-4.3211 15.648 0z" fill="none" stroke="#000" stroke-width="3"/>
   </g>
  </g>
 </g>
 <g transform="matrix(.35278 0 0 -.35278 -130.28 483.31)">
  <g clip-path="url(#clipPath1744)">
   <path d="m934.98 1628.1c4.3212-4.321 4.3212-11.327 0-15.648-4.3211-4.321-11.327-4.321-15.648 0-4.3212 4.321-4.3212 11.327 0 15.648 4.3211 4.321 11.327 4.321 15.648 0z"/>
   <g transform="matrix(1 0 0 -1 916.09 1631.3)">
    <path d="m18.889 3.2409c4.3212 4.3211 4.3212 11.327 0 15.648-4.3211 4.3212-11.327 4.3212-15.648 0-4.3211-4.3211-4.3211-11.327 0-15.648 4.3211-4.3211 11.327-4.3211 15.648 0z" fill="none" stroke="#000" stroke-width="3"/>
   </g>
  </g>
 </g>
 <g transform="matrix(.35278 0 0 -.35278 -130.28 483.31)">
  <g clip-path="url(#clipPath1758)">
   <path d="m972.75 1628.1c4.3211-4.321 4.3211-11.327 0-15.648-4.3212-4.321-11.327-4.321-15.648 0-4.3211 4.321-4.3211 11.327 0 15.648 4.3212 4.321 11.327 4.321 15.648 0z"/>
   <g transform="matrix(1 0 0 -1 953.86 1631.3)">
    <path d="m18.889 3.2409c4.3212 4.3211 4.3212 11.327 0 15.648-4.3211 4.3212-11.327 4.3212-15.648 0-4.3211-4.3211-4.3211-11.327 0-15.648 4.3211-4.3211 11.327-4.3211 15.648 0z" fill="none" stroke="#000" stroke-width="3"/>
   </g>
  </g>
 </g>
 <g transform="matrix(.35278 0 0 -.35278 -130.28 483.31)">
  <g clip-path="url(#clipPath1772)">
   <path d="m821.65 1565.7c4.3211-4.321 4.3211-11.327 0-15.648-4.3212-4.321-11.327-4.321-15.648 0-4.3211 4.321-4.3211 11.327 0 15.648 4.3212 4.321 11.327 4.321 15.648 0z"/>
   <g transform="matrix(1 0 0 -1 802.76 1568.9)">
    <path d="m18.889 3.2409c4.3212 4.3211 4.3212 11.327 0 15.648-4.3211 4.3212-11.327 4.3212-15.648 0-4.3211-4.3211-4.3211-11.327 0-15.648 4.3211-4.3211 11.327-4.3211 15.648 0z" fill="none" stroke="#000" stroke-width="3"/>
   </g>
  </g>
 </g>
 <g transform="matrix(.35278 0 0 -.35278 -130.28 483.31)">
  <g clip-path="url(#clipPath1786)">
   <g transform="matrix(1 0 0 -1 840.54 1568.9)">
    <path d="m18.889 3.2409c4.3212 4.3211 4.3212 11.327 0 15.648-4.3211 4.3212-11.327 4.3212-15.648 0-4.3211-4.3211-4.3211-11.327 0-15.648 4.3211-4.3211 11.327-4.3211 15.648 0z" fill="none" stroke="#000" stroke-width="3"/>
   </g>
  </g>
 </g>
 <g transform="matrix(.35278 0 0 -.35278 -130.28 483.31)">
  <g clip-path="url(#clipPath1798)">
   <g transform="matrix(1 0 0 -1 878.31 1568.9)">
    <path d="m18.889 3.2409c4.3212 4.3211 4.3212 11.327 0 15.648-4.3211 4.3212-11.327 4.3212-15.648 0-4.3211-4.3211-4.3211-11.327 0-15.648 4.3211-4.3211 11.327-4.3211 15.648 0z" fill="none" stroke="#000" stroke-width="3"/>
   </g>
  </g>
 </g>
 <g transform="matrix(.35278 0 0 -.35278 -130.28 483.31)">
  <g clip-path="url(#clipPath1810)">
   <g transform="matrix(1 0 0 -1 916.09 1568.9)">
    <path d="m18.889 3.2409c4.3212 4.3211 4.3212 11.327 0 15.648-4.3211 4.3212-11.327 4.3212-15.648 0-4.3211-4.3211-4.3211-11.327 0-15.648 4.3211-4.3211 11.327-4.3211 15.648 0z" fill="none" stroke="#000" stroke-width="3"/>
   </g>
  </g>
 </g>
 <g transform="matrix(.35278 0 0 -.35278 -130.28 483.31)">
  <g clip-path="url(#clipPath1822)">
   <g transform="matrix(1 0 0 -1 953.86 1568.9)">
    <path d="m18.889 3.2409c4.3212 4.3211 4.3212 11.327 0 15.648-4.3211 4.3212-11.327 4.3212-15.648 0-4.3211-4.3211-4.3211-11.327 0-15.648 4.3211-4.3211 11.327-4.3211 15.648 0z" fill="none" stroke="#000" stroke-width="3"/>
   </g>
  </g>
 </g>
 <g transform="matrix(.35278 0 0 -.35278 -130.28 483.31)">
  <g clip-path="url(#clipPath1834)">
   <path d="m821.65 1501.2c4.3211-4.322 4.3211-11.327 0-15.649-4.3212-4.321-11.327-4.321-15.648 0-4.3211 4.322-4.3211 11.327 0 15.649 4.3212 4.321 11.327 4.321 15.648 0z"/>
   <g transform="matrix(1 0 0 -1 802.76 1504.4)">
    <path d="m18.889 3.2409c4.3212 4.3211 4.3212 11.327 0 15.648-4.3211 4.3212-11.327 4.3212-15.648 0-4.3211-4.3211-4.3211-11.327 0-15.648 4.3211-4.3211 11.327-4.3211 15.648 0z" fill="none" stroke="#000" stroke-width="3"/>
   </g>
  </g>
 </g>
 <g transform="matrix(.35278 0 0 -.35278 -130.28 483.31)">
  <g clip-path="url(#clipPath1848)">
   <g transform="matrix(1 0 0 -1 840.54 1504.4)">
    <path d="m18.889 3.2409c4.3212 4.3211 4.3212 11.327 0 15.648-4.3211 4.3212-11.327 4.3212-15.648 0-4.3211-4.3211-4.3211-11.327 0-15.648 4.3211-4.3211 11.327-4.3211 15.648 0z" fill="none" stroke="#000" stroke-width="3"/>
   </g>
  </g>
 </g>
 <g transform="matrix(.35278 0 0 -.35278 -130.28 483.31)">
  <g clip-path="url(#clipPath1860)">
   <g transform="matrix(1 0 0 -1 878.31 1504.4)">
    <path d="m18.889 3.2409c4.3212 4.3211 4.3212 11.327 0 15.648-4.3211 4.3212-11.327 4.3212-15.648 0-4.3211-4.3211-4.3211-11.327 0-15.648 4.3211-4.3211 11.327-4.3211 15.648 0z" fill="none" stroke="#000" stroke-width="3"/>
   </g>
  </g>
 </g>
 <g transform="matrix(.35278 0 0 -.35278 -130.28 483.31)">
  <g clip-path="url(#clipPath1872)">
   <g transform="matrix(1 0 0 -1 916.09 1504.4)">
    <path d="m18.889 3.2409c4.3212 4.3211 4.3212 11.327 0 15.648-4.3211 4.3212-11.327 4.3212-15.648 0-4.3211-4.3211-4.3211-11.327 0-15.648 4.3211-4.3211 11.327-4.3211 15.648 0z" fill="none" stroke="#000" stroke-width="3"/>
   </g>
  </g>
 </g>
 <g transform="matrix(.35278 0 0 -.35278 -130.28 483.31)">
  <g clip-path="url(#clipPath1884)">
   <g transform="matrix(1 0 0 -1 953.86 1504.4)">
    <path d="m18.889 3.2409c4.3212 4.3211 4.3212 11.327 0 15.648-4.3211 4.3212-11.327 4.3212-15.648 0-4.3211-4.3211-4.3211-11.327 0-15.648 4.3211-4.3211 11.327-4.3211 15.648 0z" fill="none" stroke="#000" stroke-width="3"/>
   </g>
  </g>
 </g>
 <g transform="matrix(.35278 0 0 -.35278 -130.28 483.31)">
  <g clip-path="url(#clipPath1896)">
   <path d="m821.65 1435.5c4.3211-4.321 4.3211-11.327 0-15.648-4.3212-4.321-11.327-4.321-15.648 0-4.3211 4.321-4.3211 11.327 0 15.648 4.3212 4.322 11.327 4.322 15.648 0z"/>
   <g transform="matrix(1 0 0 -1 802.76 1438.7)">
    <path d="m18.889 3.2409c4.3212 4.3211 4.3212 11.327 0 15.648-4.3211 4.3212-11.327 4.3212-15.648 0-4.3211-4.3211-4.3211-11.327 0-15.648 4.3211-4.3211 11.327-4.3211 15.648 0z" fill="none" stroke="#000" stroke-width="3"/>
   </g>
  </g>
 </g>
 <g transform="matrix(.35278 0 0 -.35278 -130.28 483.31)">
  <g clip-path="url(#clipPath1910)">
   <g transform="matrix(1 0 0 -1 840.54 1438.7)">
    <path d="m18.889 3.2409c4.3212 4.3211 4.3212 11.327 0 15.648-4.3211 4.3212-11.327 4.3212-15.648 0-4.3211-4.3211-4.3211-11.327 0-15.648 4.3211-4.3211 11.327-4.3211 15.648 0z" fill="none" stroke="#000" stroke-width="3"/>
   </g>
  </g>
 </g>
 <g transform="matrix(.35278 0 0 -.35278 -130.28 483.31)">
  <g clip-path="url(#clipPath1922)">
   <g transform="matrix(1 0 0 -1 878.31 1438.7)">
    <path d="m18.889 3.2409c4.3212 4.3211 4.3212 11.327 0 15.648-4.3211 4.3212-11.327 4.3212-15.648 0-4.3211-4.3211-4.3211-11.327 0-15.648 4.3211-4.3211 11.327-4.3211 15.648 0z" fill="none" stroke="#000" stroke-width="3"/>
   </g>
  </g>
 </g>
 <g transform="matrix(.35278 0 0 -.35278 -130.28 483.31)">
  <g clip-path="url(#clipPath1934)">
   <g transform="matrix(1 0 0 -1 916.09 1438.7)">
    <path d="m18.889 3.2409c4.3212 4.3211 4.3212 11.327 0 15.648-4.3211 4.3212-11.327 4.3212-15.648 0-4.3211-4.3211-4.3211-11.327 0-15.648 4.3211-4.3211 11.327-4.3211 15.648 0z" fill="none" stroke="#000" stroke-width="3"/>
   </g>
  </g>
 </g>
 <g transform="matrix(.35278 0 0 -.35278 -130.28 483.31)">
  <g clip-path="url(#clipPath1946)">
   <g transform="matrix(1 0 0 -1 953.86 1438.7)">
    <path d="m18.889 3.2409c4.3212 4.3211 4.3212 11.327 0 15.648-4.3211 4.3212-11.327 4.3212-15.648 0-4.3211-4.3211-4.3211-11.327 0-15.648 4.3211-4.3211 11.327-4.3211 15.648 0z" fill="none" stroke="#000" stroke-width="3"/>
   </g>
  </g>
 </g>
 <g transform="matrix(.35278 0 0 -.35278 -130.28 483.31)">
  <g clip-path="url(#clipPath1958)">
   <path d="m819.65 1342.1c4.3211-4.321 4.3211-11.327 0-15.648-4.3212-4.321-11.327-4.321-15.648 0-4.3211 4.321-4.3211 11.327 0 15.648 4.3212 4.321 11.327 4.321 15.648 0z"/>
   <g transform="matrix(1 0 0 -1 800.76 1345.3)">
    <path d="m18.889 3.2409c4.3212 4.3211 4.3212 11.327 0 15.648-4.3211 4.3212-11.327 4.3212-15.648 0-4.3211-4.3211-4.3211-11.327 0-15.648 4.3211-4.3211 11.327-4.3211 15.648 0z" fill="none" stroke="#000" stroke-width="3"/>
   </g>
  </g>
 </g>
 <g transform="matrix(.35278 0 0 -.35278 -130.28 483.31)">
  <g clip-path="url(#clipPath1972)">
   <path d="m857.43 1342.1c4.3212-4.321 4.3212-11.327 0-15.648-4.3211-4.321-11.327-4.321-15.648 0-4.3212 4.321-4.3212 11.327 0 15.648 4.3211 4.321 11.327 4.321 15.648 0z"/>
   <g transform="matrix(1 0 0 -1 838.54 1345.3)">
    <path d="m18.889 3.2409c4.3212 4.3211 4.3212 11.327 0 15.648-4.3211 4.3212-11.327 4.3212-15.648 0-4.3211-4.3211-4.3211-11.327 0-15.648 4.3211-4.3211 11.327-4.3211 15.648 0z" fill="none" stroke="#000" stroke-width="3"/>
   </g>
  </g>
 </g>
 <g transform="matrix(.35278 0 0 -.35278 -130.28 483.31)">
  <g clip-path="url(#clipPath1986)">
   <path d="m895.2 1342.1c4.3212-4.321 4.3212-11.327 0-15.648-4.3211-4.321-11.327-4.321-15.648 0-4.3212 4.321-4.3212 11.327 0 15.648 4.3211 4.321 11.327 4.321 15.648 0z"/>
   <g transform="matrix(1 0 0 -1 876.31 1345.3)">
    <path d="m18.889 3.2409c4.3212 4.3211 4.3212 11.327 0 15.648-4.3211 4.3212-11.327 4.3212-15.648 0-4.3211-4.3211-4.3211-11.327 0-15.648 4.3211-4.3211 11.327-4.3211 15.648 0z" fill="none" stroke="#000" stroke-width="3"/>
   </g>
  </g>
 </g>
 <g transform="matrix(.35278 0 0 -.35278 -130.28 483.31)">
  <g clip-path="url(#clipPath2000)">
   <g transform="matrix(1 0 0 -1 914.09 1345.3)">
    <path d="m18.889 3.2409c4.3212 4.3211 4.3212 11.327 0 15.648-4.3211 4.3212-11.327 4.3212-15.648 0-4.3211-4.3211-4.3211-11.327 0-15.648 4.3211-4.3211 11.327-4.3211 15.648 0z" fill="none" stroke="#000" stroke-width="3"/>
   </g>
  </g>
 </g>
 <g transform="matrix(.35278 0 0 -.35278 -130.28 483.31)">
  <g clip-path="url(#clipPath2012)">
   <g transform="matrix(1 0 0 -1 951.86 1345.3)">
    <path d="m18.889 3.2409c4.3212 4.3211 4.3212 11.327 0 15.648-4.3211 4.3212-11.327 4.3212-15.648 0-4.3211-4.3211-4.3211-11.327 0-15.648 4.3211-4.3211 11.327-4.3211 15.648 0z" fill="none" stroke="#000" stroke-width="3"/>
   </g>
  </g>
 </g>
 <g transform="matrix(.35278 0 0 -.35278 -130.28 483.31)">
  <g clip-path="url(#clipPath2024)">
   <path d="m819.65 1279.7c4.3211-4.321 4.3211-11.327 0-15.648-4.3212-4.321-11.327-4.321-15.648 0-4.3211 4.321-4.3211 11.327 0 15.648 4.3212 4.321 11.327 4.321 15.648 0z"/>
   <g transform="matrix(1 0 0 -1 800.76 1282.9)">
    <path d="m18.889 3.2409c4.3212 4.3211 4.3212 11.327 0 15.648-4.3211 4.3212-11.327 4.3212-15.648 0-4.3211-4.3211-4.3211-11.327 0-15.648 4.3211-4.3211 11.327-4.3211 15.648 0z" fill="none" stroke="#000" stroke-width="3"/>
   </g>
  </g>
 </g>
 <g transform="matrix(.35278 0 0 -.35278 -130.28 483.31)">
  <g clip-path="url(#clipPath2038)">
   <path d="m857.43 1279.7c4.3212-4.321 4.3212-11.327 0-15.648-4.3211-4.321-11.327-4.321-15.648 0-4.3212 4.321-4.3212 11.327 0 15.648 4.3211 4.321 11.327 4.321 15.648 0z"/>
   <g transform="matrix(1 0 0 -1 838.54 1282.9)">
    <path d="m18.889 3.2409c4.3212 4.3211 4.3212 11.327 0 15.648-4.3211 4.3212-11.327 4.3212-15.648 0-4.3211-4.3211-4.3211-11.327 0-15.648 4.3211-4.3211 11.327-4.3211 15.648 0z" fill="none" stroke="#000" stroke-width="3"/>
   </g>
  </g>
 </g>
 <g transform="matrix(.35278 0 0 -.35278 -130.28 483.31)">
  <g clip-path="url(#clipPath2052)">
   <path d="m895.2 1279.7c4.3212-4.321 4.3212-11.327 0-15.648-4.3211-4.321-11.327-4.321-15.648 0-4.3212 4.321-4.3212 11.327 0 15.648 4.3211 4.321 11.327 4.321 15.648 0z"/>
   <g transform="matrix(1 0 0 -1 876.31 1282.9)">
    <path d="m18.889 3.2409c4.3212 4.3211 4.3212 11.327 0 15.648-4.3211 4.3212-11.327 4.3212-15.648 0-4.3211-4.3211-4.3211-11.327 0-15.648 4.3211-4.3211 11.327-4.3211 15.648 0z" fill="none" stroke="#000" stroke-width="3"/>
   </g>
  </g>
 </g>
 <g transform="matrix(.35278 0 0 -.35278 -130.28 483.31)">
  <g clip-path="url(#clipPath2066)">
   <path d="m932.98 1279.7c4.3212-4.321 4.3212-11.327 0-15.648-4.3211-4.321-11.327-4.321-15.648 0-4.3212 4.321-4.3212 11.327 0 15.648 4.3211 4.321 11.327 4.321 15.648 0z"/>
   <g transform="matrix(1 0 0 -1 914.09 1282.9)">
    <path d="m18.889 3.2409c4.3212 4.3211 4.3212 11.327 0 15.648-4.3211 4.3212-11.327 4.3212-15.648 0-4.3211-4.3211-4.3211-11.327 0-15.648 4.3211-4.3211 11.327-4.3211 15.648 0z" fill="none" stroke="#000" stroke-width="3"/>
   </g>
  </g>
 </g>
 <g transform="matrix(.35278 0 0 -.35278 -130.28 483.31)">
  <g clip-path="url(#clipPath2080)">
   <g transform="matrix(1 0 0 -1 951.86 1282.9)">
    <path d="m18.889 3.2409c4.3212 4.3211 4.3212 11.327 0 15.648-4.3211 4.3212-11.327 4.3212-15.648 0-4.3211-4.3211-4.3211-11.327 0-15.648 4.3211-4.3211 11.327-4.3211 15.648 0z" fill="none" stroke="#000" stroke-width="3"/>
   </g>
  </g>
 </g>
 <g transform="matrix(.35278 0 0 -.35278 -130.28 483.31)">
  <g clip-path="url(#clipPath2092)">
   <path d="m819.65 1215.2c4.3211-4.322 4.3211-11.327 0-15.649-4.3212-4.321-11.327-4.321-15.648 0-4.3211 4.322-4.3211 11.327 0 15.649 4.3212 4.321 11.327 4.321 15.648 0z"/>
   <g transform="matrix(1 0 0 -1 800.76 1218.4)">
    <path d="m18.889 3.2409c4.3212 4.3211 4.3212 11.327 0 15.648-4.3211 4.3212-11.327 4.3212-15.648 0-4.3211-4.3211-4.3211-11.327 0-15.648 4.3211-4.3211 11.327-4.3211 15.648 0z" fill="none" stroke="#000" stroke-width="3"/>
   </g>
  </g>
 </g>
 <g transform="matrix(.35278 0 0 -.35278 -130.28 483.31)">
  <g clip-path="url(#clipPath2106)">
   <g transform="matrix(1 0 0 -1 838.54 1218.4)">
    <path d="m18.889 3.2409c4.3212 4.3211 4.3212 11.327 0 15.648-4.3211 4.3212-11.327 4.3212-15.648 0-4.3211-4.3211-4.3211-11.327 0-15.648 4.3211-4.3211 11.327-4.3211 15.648 0z" fill="none" stroke="#000" stroke-width="3"/>
   </g>
  </g>
 </g>
 <g transform="matrix(.35278 0 0 -.35278 -130.28 483.31)">
  <g clip-path="url(#clipPath2118)">
   <g transform="matrix(1 0 0 -1 876.31 1218.4)">
    <path d="m18.889 3.2409c4.3212 4.3211 4.3212 11.327 0 15.648-4.3211 4.3212-11.327 4.3212-15.648 0-4.3211-4.3211-4.3211-11.327 0-15.648 4.3211-4.3211 11.327-4.3211 15.648 0z" fill="none" stroke="#000" stroke-width="3"/>
   </g>
  </g>
 </g>
 <g transform="matrix(.35278 0 0 -.35278 -130.28 483.31)">
  <g clip-path="url(#clipPath2130)">
   <g transform="matrix(1 0 0 -1 914.09 1218.4)">
    <path d="m18.889 3.2409c4.3212 4.3211 4.3212 11.327 0 15.648-4.3211 4.3212-11.327 4.3212-15.648 0-4.3211-4.3211-4.3211-11.327 0-15.648 4.3211-4.3211 11.327-4.3211 15.648 0z" fill="none" stroke="#000" stroke-width="3"/>
   </g>
  </g>
 </g>
 <g transform="matrix(.35278 0 0 -.35278 -130.28 483.31)">
  <g clip-path="url(#clipPath2142)">
   <g transform="matrix(1 0 0 -1 951.86 1218.4)">
    <path d="m18.889 3.2409c4.3212 4.3211 4.3212 11.327 0 15.648-4.3211 4.3212-11.327 4.3212-15.648 0-4.3211-4.3211-4.3211-11.327 0-15.648 4.3211-4.3211 11.327-4.3211 15.648 0z" fill="none" stroke="#000" stroke-width="3"/>
   </g>
  </g>
 </g>
 <g transform="matrix(.35278 0 0 -.35278 -130.28 483.31)">
  <g clip-path="url(#clipPath2154)">
   <path d="m819.65 1149.5c4.3211-4.321 4.3211-11.327 0-15.648-4.3212-4.321-11.327-4.321-15.648 0-4.3211 4.321-4.3211 11.327 0 15.648 4.3212 4.321 11.327 4.321 15.648 0z"/>
   <g transform="matrix(1 0 0 -1 800.76 1152.7)">
    <path d="m18.889 3.2409c4.3212 4.3211 4.3212 11.327 0 15.648-4.3211 4.3212-11.327 4.3212-15.648 0-4.3211-4.3211-4.3211-11.327 0-15.648 4.3211-4.3211 11.327-4.3211 15.648 0z" fill="none" stroke="#000" stroke-width="3"/>
   </g>
  </g>
 </g>
 <g transform="matrix(.35278 0 0 -.35278 -130.28 483.31)">
  <g clip-path="url(#clipPath2168)">
   <path d="m857.43 1149.5c4.3212-4.321 4.3212-11.327 0-15.648-4.3211-4.321-11.327-4.321-15.648 0-4.3212 4.321-4.3212 11.327 0 15.648 4.3211 4.321 11.327 4.321 15.648 0z"/>
   <g transform="matrix(1 0 0 -1 838.54 1152.7)">
    <path d="m18.889 3.2409c4.3212 4.3211 4.3212 11.327 0 15.648-4.3211 4.3212-11.327 4.3212-15.648 0-4.3211-4.3211-4.3211-11.327 0-15.648 4.3211-4.3211 11.327-4.3211 15.648 0z" fill="none" stroke="#000" stroke-width="3"/>
   </g>
  </g>
 </g>
 <g transform="matrix(.35278 0 0 -.35278 -130.28 483.31)">
  <g clip-path="url(#clipPath2182)">
   <path d="m895.2 1149.5c4.3212-4.321 4.3212-11.327 0-15.648-4.3211-4.321-11.327-4.321-15.648 0-4.3212 4.321-4.3212 11.327 0 15.648 4.3211 4.321 11.327 4.321 15.648 0z"/>
   <g transform="matrix(1 0 0 -1 876.31 1152.7)">
    <path d="m18.889 3.2409c4.3212 4.3211 4.3212 11.327 0 15.648-4.3211 4.3212-11.327 4.3212-15.648 0-4.3211-4.3211-4.3211-11.327 0-15.648 4.3211-4.3211 11.327-4.3211 15.648 0z" fill="none" stroke="#000" stroke-width="3"/>
   </g>
  </g>
 </g>
 <g transform="matrix(.35278 0 0 -.35278 -130.28 483.31)">
  <g clip-path="url(#clipPath2196)">
   <g transform="matrix(1 0 0 -1 914.09 1152.7)">
    <path d="m18.889 3.2409c4.3212 4.3211 4.3212 11.327 0 15.648-4.3211 4.3212-11.327 4.3212-15.648 0-4.3211-4.3211-4.3211-11.327 0-15.648 4.3211-4.3211 11.327-4.3211 15.648 0z" fill="none" stroke="#000" stroke-width="3"/>
   </g>
  </g>
 </g>
 <g transform="matrix(.35278 0 0 -.35278 -130.28 483.31)">
  <g clip-path="url(#clipPath2208)">
   <g transform="matrix(1 0 0 -1 951.86 1152.7)">
    <path d="m18.889 3.2409c4.3212 4.3211 4.3212 11.327 0 15.648-4.3211 4.3212-11.327 4.3212-15.648 0-4.3211-4.3211-4.3211-11.327 0-15.648 4.3211-4.3211 11.327-4.3211 15.648 0z" fill="none" stroke="#000" stroke-width="3"/>
   </g>
  </g>
 </g>
 <g transform="matrix(.35278 0 0 -.35278 -130.28 483.31)">
  <g clip-path="url(#clipPath2220)">
   <path d="m821.65 1058.2c4.3211-4.321 4.3211-11.327 0-15.648-4.3212-4.321-11.327-4.321-15.648 0-4.3211 4.321-4.3211 11.327 0 15.648 4.3212 4.321 11.327 4.321 15.648 0z"/>
   <g transform="matrix(1 0 0 -1 802.76 1061.4)">
    <path d="m18.889 3.2409c4.3212 4.3211 4.3212 11.327 0 15.648-4.3211 4.3212-11.327 4.3212-15.648 0-4.3211-4.3211-4.3211-11.327 0-15.648 4.3211-4.3211 11.327-4.3211 15.648 0z" fill="none" stroke="#000" stroke-width="3"/>
   </g>
  </g>
 </g>
 <g transform="matrix(.35278 0 0 -.35278 -130.28 483.31)">
  <g clip-path="url(#clipPath2234)">
   <g transform="matrix(1 0 0 -1 840.54 1061.4)">
    <path d="m18.889 3.2409c4.3212 4.3211 4.3212 11.327 0 15.648-4.3211 4.3212-11.327 4.3212-15.648 0-4.3211-4.3211-4.3211-11.327 0-15.648 4.3211-4.3211 11.327-4.3211 15.648 0z" fill="none" stroke="#000" stroke-width="3"/>
   </g>
  </g>
 </g>
 <g transform="matrix(.35278 0 0 -.35278 -130.28 483.31)">
  <g clip-path="url(#clipPath2246)">
   <g transform="matrix(1 0 0 -1 878.31 1061.4)">
    <path d="m18.889 3.2409c4.3212 4.3211 4.3212 11.327 0 15.648-4.3211 4.3212-11.327 4.3212-15.648 0-4.3211-4.3211-4.3211-11.327 0-15.648 4.3211-4.3211 11.327-4.3211 15.648 0z" fill="none" stroke="#000" stroke-width="3"/>
   </g>
  </g>
 </g>
 <g transform="matrix(.35278 0 0 -.35278 -130.28 483.31)">
  <g clip-path="url(#clipPath2258)">
   <g transform="matrix(1 0 0 -1 916.09 1061.4)">
    <path d="m18.889 3.2409c4.3212 4.3211 4.3212 11.327 0 15.648-4.3211 4.3212-11.327 4.3212-15.648 0-4.3211-4.3211-4.3211-11.327 0-15.648 4.3211-4.3211 11.327-4.3211 15.648 0z" fill="none" stroke="#000" stroke-width="3"/>
   </g>
  </g>
 </g>
 <g transform="matrix(.35278 0 0 -.35278 -130.28 483.31)">
  <g clip-path="url(#clipPath2270)">
   <g transform="matrix(1 0 0 -1 953.86 1061.4)">
    <path d="m18.889 3.2409c4.3212 4.3211 4.3212 11.327 0 15.648-4.3211 4.3212-11.327 4.3212-15.648 0-4.3211-4.3211-4.3211-11.327 0-15.648 4.3211-4.3211 11.327-4.3211 15.648 0z" fill="none" stroke="#000" stroke-width="3"/>
   </g>
  </g>
 </g>
 <g transform="matrix(.35278 0 0 -.35278 -130.28 483.31)">
  <g clip-path="url(#clipPath2282)">
   <path d="m821.65 995.82c4.3211-4.3211 4.3211-11.327 0-15.648-4.3212-4.3212-11.327-4.3212-15.648 0-4.3211 4.3211-4.3211 11.327 0 15.648 4.3212 4.3208 11.327 4.3208 15.648 0z"/>
   <g transform="matrix(1 0 0 -1 802.76 999.06)">
    <path d="m18.889 3.2409c4.3212 4.3211 4.3212 11.327 0 15.648-4.3211 4.3212-11.327 4.3212-15.648 0-4.3211-4.3211-4.3211-11.327 0-15.648 4.3211-4.3211 11.327-4.3211 15.648 0z" fill="none" stroke="#000" stroke-width="3"/>
   </g>
  </g>
 </g>
 <g transform="matrix(.35278 0 0 -.35278 -130.28 483.31)">
  <g clip-path="url(#clipPath2296)">
   <path d="m859.43 995.82c4.3212-4.3211 4.3212-11.327 0-15.648-4.3211-4.3212-11.327-4.3212-15.648 0-4.3212 4.3211-4.3212 11.327 0 15.648 4.3211 4.3208 11.327 4.3208 15.648 0z"/>
   <g transform="matrix(1 0 0 -1 840.54 999.06)">
    <path d="m18.889 3.2409c4.3212 4.3211 4.3212 11.327 0 15.648-4.3211 4.3212-11.327 4.3212-15.648 0-4.3211-4.3211-4.3211-11.327 0-15.648 4.3211-4.3211 11.327-4.3211 15.648 0z" fill="none" stroke="#000" stroke-width="3"/>
   </g>
  </g>
 </g>
 <g transform="matrix(.35278 0 0 -.35278 -130.28 483.31)">
  <g clip-path="url(#clipPath2310)">
   <path d="m897.2 995.82c4.3212-4.3211 4.3212-11.327 0-15.648-4.3211-4.3212-11.327-4.3212-15.648 0-4.3212 4.3211-4.3212 11.327 0 15.648 4.3211 4.3208 11.327 4.3208 15.648 0z"/>
   <g transform="matrix(1 0 0 -1 878.31 999.06)">
    <path d="m18.889 3.2409c4.3212 4.3211 4.3212 11.327 0 15.648-4.3211 4.3212-11.327 4.3212-15.648 0-4.3211-4.3211-4.3211-11.327 0-15.648 4.3211-4.3211 11.327-4.3211 15.648 0z" fill="none" stroke="#000" stroke-width="3"/>
   </g>
  </g>
 </g>
 <g transform="matrix(.35278 0 0 -.35278 -130.28 483.31)">
  <g clip-path="url(#clipPath2324)">
   <path d="m934.98 995.82c4.3212-4.3211 4.3212-11.327 0-15.648-4.3211-4.3212-11.327-4.3212-15.648 0-4.3212 4.3211-4.3212 11.327 0 15.648 4.3211 4.3208 11.327 4.3208 15.648 0z"/>
   <g transform="matrix(1 0 0 -1 916.09 999.06)">
    <path d="m18.889 3.2409c4.3212 4.3211 4.3212 11.327 0 15.648-4.3211 4.3212-11.327 4.3212-15.648 0-4.3211-4.3211-4.3211-11.327 0-15.648 4.3211-4.3211 11.327-4.3211 15.648 0z" fill="none" stroke="#000" stroke-width="3"/>
   </g>
  </g>
 </g>
 <g transform="matrix(.35278 0 0 -.35278 -130.28 483.31)">
  <g clip-path="url(#clipPath2338)">
   <path d="m972.75 995.82c4.3211-4.3211 4.3211-11.327 0-15.648-4.3212-4.3212-11.327-4.3212-15.648 0-4.3211 4.3211-4.3211 11.327 0 15.648 4.3212 4.3208 11.327 4.3208 15.648 0z"/>
   <g transform="matrix(1 0 0 -1 953.86 999.06)">
    <path d="m18.889 3.2409c4.3212 4.3211 4.3212 11.327 0 15.648-4.3211 4.3212-11.327 4.3212-15.648 0-4.3211-4.3211-4.3211-11.327 0-15.648 4.3211-4.3211 11.327-4.3211 15.648 0z" fill="none" stroke="#000" stroke-width="3"/>
   </g>
  </g>
 </g>
 <g transform="matrix(.35278 0 0 -.35278 -130.28 483.31)">
  <g clip-path="url(#clipPath2352)">
   <path d="m821.65 931.32c4.3211-4.3211 4.3211-11.327 0-15.648-4.3212-4.3212-11.327-4.3212-15.648 0-4.3211 4.3211-4.3211 11.327 0 15.648 4.3212 4.3212 11.327 4.3212 15.648 0z"/>
   <g transform="matrix(1 0 0 -1 802.76 934.56)">
    <path d="m18.889 3.2409c4.3212 4.3211 4.3212 11.327 0 15.648-4.3211 4.3212-11.327 4.3212-15.648 0-4.3211-4.3211-4.3211-11.327 0-15.648 4.3211-4.3211 11.327-4.3211 15.648 0z" fill="none" stroke="#000" stroke-width="3"/>
   </g>
  </g>
 </g>
 <g transform="matrix(.35278 0 0 -.35278 -130.28 483.31)">
  <g clip-path="url(#clipPath2366)">
   <path d="m859.43 931.32c4.3212-4.3211 4.3212-11.327 0-15.648-4.3211-4.3212-11.327-4.3212-15.648 0-4.3212 4.3211-4.3212 11.327 0 15.648 4.3211 4.3212 11.327 4.3212 15.648 0z"/>
   <g transform="matrix(1 0 0 -1 840.54 934.56)">
    <path d="m18.889 3.2409c4.3212 4.3211 4.3212 11.327 0 15.648-4.3211 4.3212-11.327 4.3212-15.648 0-4.3211-4.3211-4.3211-11.327 0-15.648 4.3211-4.3211 11.327-4.3211 15.648 0z" fill="none" stroke="#000" stroke-width="3"/>
   </g>
  </g>
 </g>
 <g transform="matrix(.35278 0 0 -.35278 -130.28 483.31)">
  <g clip-path="url(#clipPath2380)">
   <path d="m897.2 931.32c4.3212-4.3211 4.3212-11.327 0-15.648-4.3211-4.3212-11.327-4.3212-15.648 0-4.3212 4.3211-4.3212 11.327 0 15.648 4.3211 4.3212 11.327 4.3212 15.648 0z"/>
   <g transform="matrix(1 0 0 -1 878.31 934.56)">
    <path d="m18.889 3.2409c4.3212 4.3211 4.3212 11.327 0 15.648-4.3211 4.3212-11.327 4.3212-15.648 0-4.3211-4.3211-4.3211-11.327 0-15.648 4.3211-4.3211 11.327-4.3211 15.648 0z" fill="none" stroke="#000" stroke-width="3"/>
   </g>
  </g>
 </g>
 <g transform="matrix(.35278 0 0 -.35278 -130.28 483.31)">
  <g clip-path="url(#clipPath2394)">
   <g transform="matrix(1 0 0 -1 916.09 934.56)">
    <path d="m18.889 3.2409c4.3212 4.3211 4.3212 11.327 0 15.648-4.3211 4.3212-11.327 4.3212-15.648 0-4.3211-4.3211-4.3211-11.327 0-15.648 4.3211-4.3211 11.327-4.3211 15.648 0z" fill="none" stroke="#000" stroke-width="3"/>
   </g>
  </g>
 </g>
 <g transform="matrix(.35278 0 0 -.35278 -130.28 483.31)">
  <g clip-path="url(#clipPath2406)">
   <g transform="matrix(1 0 0 -1 953.86 934.56)">
    <path d="m18.889 3.2409c4.3212 4.3211 4.3212 11.327 0 15.648-4.3211 4.3212-11.327 4.3212-15.648 0-4.3211-4.3211-4.3211-11.327 0-15.648 4.3211-4.3211 11.327-4.3211 15.648 0z" fill="none" stroke="#000" stroke-width="3"/>
   </g>
  </g>
 </g>
 <g transform="matrix(.35278 0 0 -.35278 -130.28 483.31)">
  <g clip-path="url(#clipPath2418)">
   <path d="m821.65 865.61c4.3211-4.3211 4.3211-11.327 0-15.648-4.3212-4.3212-11.327-4.3212-15.648 0-4.3211 4.3211-4.3211 11.327 0 15.648 4.3212 4.3212 11.327 4.3212 15.648 0z"/>
   <g transform="matrix(1 0 0 -1 802.76 868.85)">
    <path d="m18.889 3.2409c4.3212 4.3211 4.3212 11.327 0 15.648-4.3211 4.3212-11.327 4.3212-15.648 0-4.3211-4.3211-4.3211-11.327 0-15.648 4.3211-4.3211 11.327-4.3211 15.648 0z" fill="none" stroke="#000" stroke-width="3"/>
   </g>
  </g>
 </g>
 <g transform="matrix(.35278 0 0 -.35278 -130.28 483.31)">
  <g clip-path="url(#clipPath2432)">
   <path d="m859.43 865.61c4.3212-4.3211 4.3212-11.327 0-15.648-4.3211-4.3212-11.327-4.3212-15.648 0-4.3212 4.3211-4.3212 11.327 0 15.648 4.3211 4.3212 11.327 4.3212 15.648 0z"/>
   <g transform="matrix(1 0 0 -1 840.54 868.85)">
    <path d="m18.889 3.2409c4.3212 4.3211 4.3212 11.327 0 15.648-4.3211 4.3212-11.327 4.3212-15.648 0-4.3211-4.3211-4.3211-11.327 0-15.648 4.3211-4.3211 11.327-4.3211 15.648 0z" fill="none" stroke="#000" stroke-width="3"/>
   </g>
  </g>
 </g>
 <g transform="matrix(.35278 0 0 -.35278 -130.28 483.31)">
  <g clip-path="url(#clipPath2446)">
   <path d="m897.2 865.61c4.3212-4.3211 4.3212-11.327 0-15.648-4.3211-4.3212-11.327-4.3212-15.648 0-4.3212 4.3211-4.3212 11.327 0 15.648 4.3211 4.3212 11.327 4.3212 15.648 0z"/>
   <g transform="matrix(1 0 0 -1 878.31 868.85)">
    <path d="m18.889 3.2409c4.3212 4.3211 4.3212 11.327 0 15.648-4.3211 4.3212-11.327 4.3212-15.648 0-4.3211-4.3211-4.3211-11.327 0-15.648 4.3211-4.3211 11.327-4.3211 15.648 0z" fill="none" stroke="#000" stroke-width="3"/>
   </g>
  </g>
 </g>
 <g transform="matrix(.35278 0 0 -.35278 -130.28 483.31)">
  <g clip-path="url(#clipPath2460)">
   <path d="m934.98 865.61c4.3212-4.3211 4.3212-11.327 0-15.648-4.3211-4.3212-11.327-4.3212-15.648 0-4.3212 4.3211-4.3212 11.327 0 15.648 4.3211 4.3212 11.327 4.3212 15.648 0z"/>
   <g transform="matrix(1 0 0 -1 916.09 868.85)">
    <path d="m18.889 3.2409c4.3212 4.3211 4.3212 11.327 0 15.648-4.3211 4.3212-11.327 4.3212-15.648 0-4.3211-4.3211-4.3211-11.327 0-15.648 4.3211-4.3211 11.327-4.3211 15.648 0z" fill="none" stroke="#000" stroke-width="3"/>
   </g>
  </g>
 </g>
 <g transform="matrix(.35278 0 0 -.35278 -130.28 483.31)">
  <g clip-path="url(#clipPath2474)">
   <path d="m972.75 865.61c4.3211-4.3211 4.3211-11.327 0-15.648-4.3212-4.3212-11.327-4.3212-15.648 0-4.3211 4.3211-4.3211 11.327 0 15.648 4.3212 4.3212 11.327 4.3212 15.648 0z"/>
   <g transform="matrix(1 0 0 -1 953.86 868.85)">
    <path d="m18.889 3.2409c4.3212 4.3211 4.3212 11.327 0 15.648-4.3211 4.3212-11.327 4.3212-15.648 0-4.3211-4.3211-4.3211-11.327 0-15.648 4.3211-4.3211 11.327-4.3211 15.648 0z" fill="none" stroke="#000" stroke-width="3"/>
   </g>
  </g>
 </g>
 <g transform="matrix(.35278 0 0 -.35278 -130.28 483.31)">
  <g clip-path="url(#clipPath2488)">
   <g transform="translate(627.33 1130.9)">
    <text transform="scale(1,-1)" fill="#000000" font-family="'Gill Sans'" font-size="26px" font-weight="600"><tspan x="0 18.8526 33.755798 47.8218 62.0672 68.515198 78.111801 84.559799 99.462997 113.529" y="0">Conditions</tspan></text>
   </g>
   <g transform="translate(627.33 1107.8)">
    <text transform="scale(1,-1)" fill="#000000" font-family="'Gill Sans'" font-size="19px"><tspan x="0 6.1408 14.4628 24.947001 34.446999 40.773998 47.824902 58.309101 62.4739 67.752098 78.236298 82.986298 88.264503 97.365501 106.5786 114.9006 119.0654 126.1163 136.60049 146.10049 160.7495 169.85049 179.35049 185.67751 193.7867 197.95151" y="0">(control of environmental)</tspan></text>
   </g>
  </g>
 </g>
 <g transform="matrix(.35278 0 0 -.35278 -130.28 483.31)">
  <g clip-path="url(#clipPath2510)">
   <g transform="translate(627.33 1414.8)">
    <text transform="scale(1,-1)" fill="#000000" font-family="'Gill Sans'" font-size="26px" font-weight="600"><tspan x="0 18.8526 33.755798 47.8218 62.0672 68.515198 78.111801 84.559799 99.462997 113.529" y="0">Conditions</tspan></text>
   </g>
   <g transform="translate(627.33 1391.7)">
    <text transform="scale(1,-1)" fill="#000000" font-family="'Gill Sans'" font-size="19px"><tspan x="0 6.1408 14.4628 24.947001 34.446999 40.773998 47.824902 58.309101 62.4739 67.752098 78.236298 82.986298 88.264503 97.365501 106.5786 114.9006 119.0654 126.1163 136.60049 146.10049 160.7495 169.85049 179.35049 185.67751 193.7867 197.95151" y="0">(control of environmental)</tspan></text>
   </g>
  </g>
 </g>
</svg>
